<?xml version="1.0" standalone="no"?>
<!DOCTYPE svg PUBLIC "-//W3C//DTD SVG 20010904//EN"
 "http://www.w3.org/TR/2001/REC-SVG-20010904/DTD/svg10.dtd">
<svg version="1.0" xmlns="http://www.w3.org/2000/svg"
 width="700.000000pt" height="700.000000pt" viewBox="0 0 700.000000 700.000000"
 preserveAspectRatio="xMidYMid meet">
<metadata>
Created by potrace 1.11, written by Peter Selinger 2001-2013
</metadata>
<g transform="translate(0.000000,700.000000) scale(0.100000,-0.100000)"
fill="#000000" stroke="none">
<path d="M3325 6944 c-199 -16 -340 -41 -327 -59 4 -6 25 -23 47 -40 44 -33
135 -124 135 -136 0 -21 39 -27 105 -18 429 58 750 53 1065 -17 252 -56 474
-146 720 -291 56 -34 -49 50 -145 115 -184 125 -434 246 -690 335 -202 69
-267 81 -372 67 -188 -24 -432 -97 -572 -171 -41 -21 -76 -37 -78 -35 -6 6 38
78 75 125 20 24 62 63 95 87 l59 44 -38 -2 c-22 -1 -57 -3 -79 -4z"/>
<path d="M2598 6760 c-67 -8 -96 -18 -205 -74 -230 -117 -408 -243 -587 -416
-88 -85 -249 -270 -241 -278 1 -2 54 34 116 80 412 301 854 485 1402 584 54 9
94 20 90 24 -14 13 -136 50 -213 64 -101 19 -268 26 -362 16z"/>
<path d="M3160 6553 c-183 -515 -249 -1082 -220 -1909 7 -209 15 -419 19 -468
l6 -89 100 114 c173 196 401 446 615 674 268 284 265 281 261 319 -4 38 -88
299 -146 456 -102 273 -229 537 -343 710 -66 102 -82 121 -185 238 -27 29 -46
56 -43 59 9 9 446 -213 579 -294 612 -375 1002 -813 1323 -1488 38 -80 71
-145 74 -145 3 0 14 62 24 138 23 173 32 629 18 872 l-11 175 -43 38 c-81 71
-313 243 -433 321 -229 149 -508 269 -765 330 -191 46 -293 58 -546 62 l-242
5 -42 -118z"/>
<path d="M3025 6609 c-859 -328 -1481 -982 -1786 -1878 -16 -47 -29 -86 -29
-88 0 -2 16 12 35 31 145 145 308 239 667 386 70 28 131 57 136 63 5 7 15 28
22 47 40 104 216 473 256 536 18 27 39 66 47 85 8 18 30 54 48 79 19 25 50 68
69 95 114 168 377 441 574 596 85 66 119 100 98 98 -4 0 -65 -23 -137 -50z"/>
<path d="M5757 4980 c-153 -311 -256 -470 -431 -669 -73 -83 -235 -235 -296
-278 -40 -28 -23 -36 58 -29 149 13 326 59 497 127 191 77 306 150 367 233
l30 41 -6 165 c-8 237 -27 367 -79 560 l-23 85 -117 -235z"/>
<path d="M1080 5020 c0 -6 -7 -56 -15 -112 -27 -179 -45 -377 -45 -492 l1
-111 57 110 c32 61 72 132 90 159 18 28 32 61 32 75 0 36 -101 381 -111 381
-5 0 -9 -5 -9 -10z"/>
<path d="M5095 4645 c-549 -345 -1714 -845 -2448 -1050 -75 -21 -134 -42 -130
-45 17 -15 421 -87 673 -119 352 -45 592 -61 935 -60 335 0 524 11 536 30 5 8
41 64 79 124 96 151 244 443 297 589 66 182 174 579 161 592 -2 1 -48 -26
-103 -61z"/>
<path d="M1030 4275 c0 -12 80 -186 117 -255 143 -264 305 -445 533 -595 96
-63 278 -165 403 -226 l67 -33 33 39 c94 116 557 634 679 761 49 50 88 93 88
95 0 2 -163 4 -363 5 -705 2 -1203 64 -1489 184 -38 15 -68 27 -68 25z"/>
<path d="M5911 4032 c-224 -455 -670 -856 -1186 -1065 -139 -57 -260 -94 -400
-122 l-110 -22 35 -22 c151 -93 567 -181 853 -181 57 0 60 1 117 56 l59 56
-304 -759 c-288 -720 -305 -758 -327 -754 -66 11 -346 1 -470 -16 -76 -11
-138 -19 -138 -18 0 2 -25 184 -55 405 -30 221 -55 409 -55 416 0 8 -8 14 -17
15 -10 0 42 13 114 28 73 15 135 30 138 33 21 21 37 207 41 467 l5 283 87 97
c136 153 369 458 332 436 -8 -5 -40 -25 -70 -45 -30 -21 -116 -72 -190 -115
-724 -421 -1609 -574 -2314 -400 -55 14 -101 23 -103 21 -2 -2 41 -46 96 -98
263 -250 638 -444 1007 -519 91 -19 112 -26 129 -48 41 -55 103 -103 183 -142
l82 -41 98 7 c53 4 147 13 207 20 61 7 110 13 111 12 0 -1 27 -180 59 -397 32
-217 60 -406 63 -421 4 -24 1 -25 -95 -43 -201 -38 -421 -106 -489 -152 -20
-14 -40 -22 -44 -17 -4 4 -229 289 -500 633 -271 344 -500 633 -509 644 -14
16 -11 16 29 -4 41 -21 36 -13 -74 101 -135 140 -236 264 -321 391 l-58 87 47
74 c25 41 73 112 106 158 l60 84 -243 6 c-266 7 -326 16 -477 73 -50 18 -90
30 -90 27 0 -4 23 -45 52 -91 184 -302 518 -633 824 -816 44 -27 82 -53 83
-59 1 -5 252 -329 558 -719 l556 -709 134 -376 c73 -207 142 -384 152 -395 62
-62 378 -60 645 3 189 45 357 115 409 169 l26 27 -40 407 -40 407 332 853 331
852 77 96 c243 299 397 603 476 935 24 103 48 245 42 251 -2 2 -18 -27 -36
-64z"/>
</g>
</svg>
