<svg xmlns="http://www.w3.org/2000/svg" xmlns:xlink="http://www.w3.org/1999/xlink" viewBox="0 0 295.88 180.06"><defs><style>.cls-1{fill:#fff;}.cls-2{clip-path:url(#clip-path);}</style><clipPath id="clip-path"><path class="cls-1" d="M276.22,127.88H2a2,2,0,0,0,0,4h274.2a2,2,0,0,0,0-4Z"/></clipPath></defs><title>Artboard 2</title><g id="Layer_2" data-name="Layer 2"><path class="cls-1" d="M74.84,22.61v-1c2.14-.27,2.45-.54,2-1.87S75.73,16.62,75,14.55H67.74c-.54,1.53-1.05,3-1.5,4.39-.75,2.14-.44,2.48,2.11,2.72v1H61v-1c2.14-.31,2.62-.51,3.81-3.5l7-17.85L72.87,0C75,5.85,77.26,12.31,79.43,18.22c1.09,2.92,1.53,3.23,3.74,3.43v1ZM71.51,4.42h-.07c-1.09,2.92-2.18,5.88-3.2,8.67H74.5Z"/><path class="cls-1" d="M101,22.61V21.8c1.83-.19,2.17-.31,2.17-2.51V14.11c0-2.2-.77-3.6-2.73-3.6A5.71,5.71,0,0,0,97,12.13a7.2,7.2,0,0,1,.09,1.3v6c0,2,.28,2.14,2,2.33v.81H92.42V21.8c1.92-.19,2.2-.34,2.2-2.39V14.08c0-2.29-.81-3.57-2.7-3.57a5.77,5.77,0,0,0-3.38,1.61v7.29c0,2,.25,2.2,1.77,2.39v.81H83.77V21.8c2-.19,2.33-.37,2.33-2.39V13c0-2-.09-2.14-1.89-2.42V9.86a18.92,18.92,0,0,0,4.31-1.27V11.1c.65-.43,1.33-1,2.26-1.58a4.61,4.61,0,0,1,2.54-.84,3.7,3.7,0,0,1,3.44,2.54,29.21,29.21,0,0,1,2.57-1.74,4.29,4.29,0,0,1,2.33-.81c2.42,0,3.94,1.71,3.94,4.74v6c0,2.08.25,2.2,2,2.39v.81Z"/><path class="cls-1" d="M120.45,20c-2,2.45-4.09,3-5.05,3-3.81,0-6-3.1-6-6.6a8,8,0,0,1,2-5.43,6.29,6.29,0,0,1,4.53-2.26h0a4.8,4.8,0,0,1,4.65,4.71c0,.62-.15.87-.71,1s-4.4.4-8.09.53c0,4.22,2.45,6,4.62,6A5.07,5.07,0,0,0,120,19.32ZM115.18,9.83c-1.39,0-2.76,1.3-3.22,3.81,1.74,0,3.44,0,5.24-.09.56,0,.74-.19.74-.62a2.84,2.84,0,0,0-2.73-3.1Z"/><path class="cls-1" d="M127.05,12c.93-1.55,2.26-3.29,3.75-3.29a1.72,1.72,0,0,1,1.8,1.55,1.74,1.74,0,0,1-1,1.52.72.72,0,0,1-.84-.06,1.67,1.67,0,0,0-1.3-.65c-.81,0-1.8.93-2.48,2.67v5.67c0,2,.16,2.23,2.54,2.42v.81H122.4V21.8c1.92-.19,2.14-.37,2.14-2.42V13c0-2-.16-2.17-1.92-2.42V9.86A17.54,17.54,0,0,0,127,8.59V12Z"/><path class="cls-1" d="M134.06,22.61V21.8c2-.19,2.17-.37,2.17-2.48V12.9c0-1.89-.09-2-2-2.33V9.83a19.53,19.53,0,0,0,4.4-1.21v10.7c0,2.11.22,2.29,2.2,2.48v.81Zm1.64-18.2a1.6,1.6,0,0,1,1.58-1.61,1.55,1.55,0,0,1,1.55,1.61A1.59,1.59,0,0,1,137.25,6,1.62,1.62,0,0,1,135.7,4.41Z"/><path class="cls-1" d="M154,19.82c-1.36,1.8-3.44,3.16-5.27,3.16a6.2,6.2,0,0,1-6.2-6.48,7.45,7.45,0,0,1,3.1-6.08,8.2,8.2,0,0,1,4.65-1.74h0a4.63,4.63,0,0,1,2.76.81,1.14,1.14,0,0,1,.5,1,1.51,1.51,0,0,1-1,1.33c-.15,0-.31-.09-.59-.34a4.5,4.5,0,0,0-3.1-1.27c-2,0-3.84,1.7-3.84,5,0,4.31,2.95,5.74,4.68,5.74a5,5,0,0,0,3.78-1.71Z"/><path class="cls-1" d="M165.37,23a2.53,2.53,0,0,1-1.46-.59,3.21,3.21,0,0,1-.74-1.39c-1.24.84-2.73,2-3.66,2a3.74,3.74,0,0,1-3.72-3.78c0-1.52.81-2.48,2.51-3.07a22.2,22.2,0,0,0,4.81-2v-.56c0-2.23-1.05-3.5-2.6-3.5a1.75,1.75,0,0,0-1.4.62,4.53,4.53,0,0,0-.93,2,.86.86,0,0,1-.9.74,1.52,1.52,0,0,1-1.36-1.33c0-.46.4-.81,1-1.24a13.84,13.84,0,0,1,4.65-2.17,4,4,0,0,1,2.54.84,4.51,4.51,0,0,1,1.4,3.78v5.77c0,1.4.56,1.86,1.09,1.86a2.36,2.36,0,0,0,1.12-.34l.31.81Zm-2.26-7.81c-.65.34-2.14,1-2.79,1.3-1.21.56-1.89,1.15-1.89,2.26a2.27,2.27,0,0,0,2.2,2.39A4.43,4.43,0,0,0,163.1,20Z"/><path class="cls-1" d="M177.67,22.61V21.8c1.83-.19,2-.43,2-2.57V14.05c0-2.14-.74-3.53-2.82-3.53a5.55,5.55,0,0,0-3.38,1.58v7.29c0,2.11.19,2.23,2,2.42v.81h-6.73V21.8c2.11-.22,2.26-.37,2.26-2.42V13c0-2-.19-2.08-1.86-2.39V9.86a18.64,18.64,0,0,0,4.31-1.27v2.48c.62-.47,1.3-.93,2.08-1.46a4.76,4.76,0,0,1,2.57-.93c2.45,0,4,1.71,4,4.71v6c0,2.11.16,2.23,2,2.42v.81Z"/><path class="cls-1" d="M193.19,22.61v-1c2.79-.2,3.06-.41,3.06-3.3V4.76c0-2.89-.27-3.09-3.06-3.3v-1h9v1c-2.79.2-3.06.41-3.06,3.3v13.6c0,2.92.27,3.09,3.06,3.3v1Z"/><path class="cls-1" d="M213.26,22.61V21.8c1.83-.19,2-.43,2-2.57V14.05c0-2.14-.74-3.53-2.82-3.53a5.55,5.55,0,0,0-3.38,1.58v7.29c0,2.11.19,2.23,2,2.42v.81h-6.73V21.8c2.11-.22,2.26-.37,2.26-2.42V13c0-2-.19-2.08-1.86-2.39V9.86a18.64,18.64,0,0,0,4.31-1.27v2.48c.62-.47,1.3-.93,2.08-1.46a4.76,4.76,0,0,1,2.57-.93c2.45,0,4,1.71,4,4.71v6c0,2.11.16,2.23,2,2.42v.81Z"/><path class="cls-1" d="M229.32,12.72c-.59-1.83-1.67-3.07-3.19-3.07a2,2,0,0,0-2,2.14c0,1.36,1.24,2.11,2.63,2.7,2.33,1,3.91,2.08,3.91,4.22,0,2.82-2.64,4.28-5.12,4.28A6.22,6.22,0,0,1,222,21.93a14.58,14.58,0,0,1-.5-3.66l.81-.15c.56,2,2,3.84,3.81,3.84a2.16,2.16,0,0,0,2.2-2.17c0-1.36-.9-2.11-2.45-2.82C224,16.1,222,15.07,222,12.69c0-2.17,1.86-4,4.71-4a6.66,6.66,0,0,1,2.76.53,23.28,23.28,0,0,1,.68,3.32Z"/><path class="cls-1" d="M238.56,22.58a3.15,3.15,0,0,1-1.3.4c-2,0-3-1.24-3-3.69v-9h-2.14L232,10l.84-.9h1.43V6.79l2-2,.43.06V9.06h3.5a.88.88,0,0,1-.19,1.21h-3.32v8c0,2.51,1,3,1.8,3a4.44,4.44,0,0,0,1.92-.53l.28.81Z"/><path class="cls-1" d="M242,22.61V21.8c2-.19,2.17-.37,2.17-2.48V12.9c0-1.89-.09-2-2-2.33V9.83a19.54,19.54,0,0,0,4.4-1.21v10.7c0,2.11.22,2.29,2.2,2.48v.81Zm1.64-18.2a1.59,1.59,0,0,1,1.58-1.61,1.55,1.55,0,0,1,1.55,1.61A1.59,1.59,0,0,1,245.22,6,1.62,1.62,0,0,1,243.67,4.41Z"/><path class="cls-1" d="M256.1,22.58a3.15,3.15,0,0,1-1.3.4c-2,0-3-1.24-3-3.69v-9h-2.14L249.5,10l.84-.9h1.43V6.79l2-2,.43.06V9.06h3.5a.88.88,0,0,1-.19,1.21h-3.32v8c0,2.51,1,3,1.8,3a4.44,4.44,0,0,0,1.92-.53l.28.81Z"/><path class="cls-1" d="M274.18,21.86a22,22,0,0,0-2.39.5c-.81.22-1.58.47-2.17.62l-.19-.19v-2.2c-.71.53-1.43,1.08-2.29,1.61a4.43,4.43,0,0,1-2.39.77c-2.08,0-3.84-1.27-3.84-4.62V12.28c0-1.64-.25-1.8-1-2l-.87-.19V9.4c.65,0,1.4-.12,2.23-.22s1.67-.25,2.2-.34c-.09,1-.09,2.42-.09,4.53v4.19c0,2.73,1.33,3.47,2.73,3.47a4.82,4.82,0,0,0,3.35-1.49V12.31c0-1.67-.28-1.86-1.3-2L267,10.11V9.4c.84,0,1.89-.12,2.79-.25s1.61-.22,2.08-.31V19.2c0,1.55.25,1.77,1.43,1.83l.87.06Z"/><path class="cls-1" d="M281.34,22.58a3.15,3.15,0,0,1-1.3.4c-2,0-3-1.24-3-3.69v-9h-2.14l-.12-.31.84-.9H277V6.79l2-2,.43.06V9.06h3.5a.88.88,0,0,1-.19,1.21h-3.32v8c0,2.51,1,3,1.8,3a4.44,4.44,0,0,0,1.92-.53l.28.81Z"/><path class="cls-1" d="M295.72,20c-2,2.45-4.09,3-5.05,3-3.81,0-6-3.1-6-6.6a8,8,0,0,1,2-5.43,6.29,6.29,0,0,1,4.53-2.26h0a4.8,4.8,0,0,1,4.65,4.71c0,.62-.16.87-.71,1s-4.4.4-8.09.53c0,4.22,2.45,6,4.62,6a5.06,5.06,0,0,0,3.53-1.55ZM290.45,9.83c-1.4,0-2.76,1.3-3.22,3.81,1.74,0,3.44,0,5.24-.09.56,0,.74-.19.74-.62a2.84,2.84,0,0,0-2.73-3.1Z"/><path class="cls-1" d="M103.69,47a6.83,6.83,0,0,1,7,7c0,5-3.57,7.47-7.19,7.47a6.83,6.83,0,0,1-7.26-6.91A7.32,7.32,0,0,1,103.66,47Zm-.46,1.21c-1.27,0-2.51,1.64-2.51,5.21,0,3.81,1.21,6.82,3.16,6.82,1.18,0,2.42-.77,2.42-5.33,0-4.31-1.08-6.7-3-6.7Z"/><path class="cls-1" d="M116,47.71a13,13,0,0,1,2.67-6.14,7,7,0,0,1,4.56-2.48c1.15,0,2,.78,1.92,1.36a2.16,2.16,0,0,1-.84,1.36.58.58,0,0,1-.81,0,2.92,2.92,0,0,0-2-1.18c-1.08,0-2,1.3-2.88,7.1h3.53l-.65,1-3.13.28c-.56,3.32-.9,5.3-1.61,8.74-1.12,5.3-2.33,7.56-4.09,9.36A5.31,5.31,0,0,1,109.21,69c-.93,0-2-.65-2-1.36a2.15,2.15,0,0,1,.9-1.4.39.39,0,0,1,.62,0,3.59,3.59,0,0,0,2,.84,1.62,1.62,0,0,0,1.27-.65c.34-.47,1-1.74,2-7.54.71-4.28,1.15-6.88,1.64-9.92h-2.54l-.09-.34,1-.93Z"/><path class="cls-1" d="M153.23,61.11v-1c2.75-.27,2.89-.44,2.86-4L156,42.24h-.13l-8.3,18.63h-.68l-7.62-18.15h-.07l-.51,9.69c-.14,2.79-.14,4.28-.1,5.64.07,1.63.88,1.87,3.13,2.11v1h-7.92v-1c2-.24,2.65-.61,2.89-2,.17-1.19.37-2.69.65-6.22l.48-7.07c.31-4.42.14-4.56-3-4.86V39h5.58l7.75,17L156,39h5.78v1c-3,.27-3.23.34-3.13,3.84L159,56.11c.1,3.6.2,3.77,3.16,4v1Z"/><path class="cls-1" d="M173.14,61.48a2.53,2.53,0,0,1-1.46-.59,3.21,3.21,0,0,1-.74-1.39c-1.24.84-2.73,2-3.66,2a3.74,3.74,0,0,1-3.72-3.78c0-1.52.8-2.48,2.51-3.07a22.23,22.23,0,0,0,4.81-2v-.56c0-2.23-1.05-3.5-2.6-3.5a1.75,1.75,0,0,0-1.4.62,4.53,4.53,0,0,0-.93,2,.86.86,0,0,1-.9.74,1.51,1.51,0,0,1-1.37-1.33c0-.46.4-.81,1-1.24a13.85,13.85,0,0,1,4.65-2.17,4,4,0,0,1,2.54.84,4.51,4.51,0,0,1,1.4,3.78v5.77c0,1.4.56,1.86,1.08,1.86a2.36,2.36,0,0,0,1.12-.34l.31.81Zm-2.26-7.81c-.65.34-2.14,1-2.79,1.3-1.21.56-1.89,1.15-1.89,2.26a2.27,2.27,0,0,0,2.2,2.39,4.43,4.43,0,0,0,2.48-1.12Z"/><path class="cls-1" d="M182.5,61.08a3.16,3.16,0,0,1-1.3.4c-2,0-3-1.24-3-3.69v-9H176l-.12-.31.84-.9h1.43V45.29l2-2,.44.06v4.25h3.5a.88.88,0,0,1-.19,1.21h-3.32v8c0,2.51,1,3,1.8,3a4.45,4.45,0,0,0,1.92-.53l.28.81Z"/><path class="cls-1" d="M194.37,61.11V60.3c1.8-.19,2-.37,2-2.39V52.77c0-2.54-1-3.81-3-3.81a4.38,4.38,0,0,0-3.22,1.58v7.38c0,2,.15,2.2,2,2.39v.81h-6.57l0-.81c1.86-.16,2.11-.34,2.11-2.39V43.12c0-2-.06-2.11-2.11-2.29v-.71A33.76,33.76,0,0,0,190.15,39V49.45a6.79,6.79,0,0,1,4.43-2.26c2.51,0,4.28,1.58,4.28,5.3v5.43c0,2,.22,2.23,2,2.39v.81Z"/><path class="cls-1" d="M213.5,58.47c-2,2.45-4.09,3-5.05,3-3.81,0-6-3.1-6-6.6a8,8,0,0,1,2-5.43A6.29,6.29,0,0,1,209,47.19h0a4.8,4.8,0,0,1,4.65,4.71c0,.62-.16.87-.71,1s-4.4.4-8.09.53c0,4.22,2.45,6,4.62,6A5.06,5.06,0,0,0,213,57.82Zm-5.27-10.14c-1.4,0-2.76,1.3-3.22,3.81,1.74,0,3.44,0,5.24-.09.56,0,.74-.19.74-.62a2.85,2.85,0,0,0-2.73-3.1Z"/><path class="cls-1" d="M232.5,61.11V60.3c1.83-.19,2.17-.31,2.17-2.51V52.61c0-2.2-.78-3.6-2.73-3.6a5.71,5.71,0,0,0-3.47,1.61,7.41,7.41,0,0,1,.09,1.3v6c0,2,.28,2.14,2,2.33v.81h-6.63V60.3c1.92-.19,2.2-.34,2.2-2.39V52.58c0-2.29-.81-3.57-2.7-3.57A5.76,5.76,0,0,0,220,50.63v7.29c0,2,.25,2.2,1.77,2.39v.81h-6.54V60.3c2-.19,2.33-.37,2.33-2.39V51.5c0-2-.09-2.14-1.89-2.42v-.71A19,19,0,0,0,220,47.09V49.6c.65-.43,1.33-1,2.26-1.58a4.6,4.6,0,0,1,2.54-.84,3.7,3.7,0,0,1,3.44,2.54A28.88,28.88,0,0,1,230.83,48a4.29,4.29,0,0,1,2.33-.81c2.42,0,3.94,1.71,3.94,4.74v6c0,2.08.25,2.2,2,2.39v.81Z"/><path class="cls-1" d="M250.51,61.48a2.53,2.53,0,0,1-1.46-.59,3.24,3.24,0,0,1-.74-1.39c-1.24.84-2.73,2-3.66,2a3.74,3.74,0,0,1-3.72-3.78c0-1.52.81-2.48,2.51-3.07a22.24,22.24,0,0,0,4.8-2v-.56c0-2.23-1.05-3.5-2.6-3.5a1.74,1.74,0,0,0-1.39.62,4.51,4.51,0,0,0-.93,2,.86.86,0,0,1-.9.74,1.51,1.51,0,0,1-1.37-1.33c0-.46.4-.81,1-1.24a13.86,13.86,0,0,1,4.65-2.17,4,4,0,0,1,2.54.84,4.51,4.51,0,0,1,1.4,3.78v5.77c0,1.4.56,1.86,1.08,1.86a2.36,2.36,0,0,0,1.12-.34l.31.81Zm-2.26-7.81c-.65.34-2.14,1-2.79,1.3-1.21.56-1.89,1.15-1.89,2.26a2.27,2.27,0,0,0,2.2,2.39,4.43,4.43,0,0,0,2.48-1.12Z"/><path class="cls-1" d="M259.87,61.08a3.16,3.16,0,0,1-1.3.4c-2,0-3-1.24-3-3.69v-9h-2.14l-.12-.31.84-.9h1.43V45.29l2-2,.44.06v4.25h3.5a.88.88,0,0,1-.19,1.21H258v8c0,2.51,1,3,1.8,3a4.45,4.45,0,0,0,1.92-.53L262,60Z"/><path class="cls-1" d="M263.34,61.11V60.3c2-.19,2.17-.37,2.17-2.48V51.4c0-1.89-.09-2-2-2.33v-.74a19.5,19.5,0,0,0,4.4-1.21v10.7c0,2.11.22,2.29,2.2,2.48v.81ZM265,42.91a1.6,1.6,0,0,1,1.58-1.61,1.55,1.55,0,0,1,1.55,1.61,1.59,1.59,0,0,1-1.58,1.58A1.62,1.62,0,0,1,265,42.91Z"/><path class="cls-1" d="M283.31,58.32c-1.36,1.8-3.44,3.16-5.27,3.16a6.2,6.2,0,0,1-6.2-6.48,7.45,7.45,0,0,1,3.1-6.08,8.2,8.2,0,0,1,4.65-1.74h0a4.63,4.63,0,0,1,2.76.81,1.14,1.14,0,0,1,.5,1,1.51,1.51,0,0,1-1,1.33c-.15,0-.31-.09-.59-.34a4.5,4.5,0,0,0-3.1-1.27c-2,0-3.84,1.7-3.84,5,0,4.31,2.95,5.74,4.68,5.74a5,5,0,0,0,3.78-1.71Z"/><path class="cls-1" d="M292.89,51.22c-.59-1.83-1.67-3.07-3.19-3.07a2,2,0,0,0-2,2.14c0,1.36,1.24,2.11,2.63,2.7,2.33,1,3.91,2.08,3.91,4.22,0,2.82-2.64,4.28-5.12,4.28a6.22,6.22,0,0,1-3.56-1.05,14.63,14.63,0,0,1-.5-3.66l.8-.16c.56,2,2,3.84,3.81,3.84a2.16,2.16,0,0,0,2.2-2.17c0-1.36-.9-2.11-2.45-2.82-1.86-.87-3.87-1.89-3.87-4.28,0-2.17,1.86-4,4.71-4a6.67,6.67,0,0,1,2.76.53,23.42,23.42,0,0,1,.68,3.32Z"/><path class="cls-1" d="M276.22,127.88H2a2,2,0,0,0,0,4h274.2a2,2,0,0,0,0-4Z"/><g class="cls-2"><rect class="cls-1" y="127.88" width="0.55" height="4.03"/><rect class="cls-1" x="0.55" y="127.88" width="0.55" height="4.03"/><rect class="cls-1" x="1.1" y="127.88" width="0.55" height="4.03"/><rect class="cls-1" x="1.65" y="127.88" width="0.55" height="4.03"/><rect class="cls-1" x="2.2" y="127.88" width="0.55" height="4.03"/><rect class="cls-1" x="2.75" y="127.88" width="0.55" height="4.03"/><rect class="cls-1" x="3.3" y="127.88" width="0.55" height="4.03"/><rect class="cls-1" x="3.84" y="127.88" width="0.55" height="4.03"/><rect class="cls-1" x="4.39" y="127.88" width="0.55" height="4.03"/><rect class="cls-1" x="4.94" y="127.88" width="0.55" height="4.03"/><rect class="cls-1" x="5.49" y="127.88" width="0.55" height="4.03"/><rect class="cls-1" x="6.04" y="127.88" width="0.55" height="4.03"/><rect class="cls-1" x="6.59" y="127.88" width="0.55" height="4.03"/><rect class="cls-1" x="7.14" y="127.88" width="0.55" height="4.03"/><rect class="cls-1" x="7.69" y="127.88" width="0.55" height="4.03"/><rect class="cls-1" x="8.24" y="127.88" width="0.55" height="4.03"/><rect class="cls-1" x="8.79" y="127.88" width="0.55" height="4.03"/><rect class="cls-1" x="9.34" y="127.88" width="0.55" height="4.03"/><rect class="cls-1" x="9.89" y="127.88" width="0.55" height="4.03"/><rect class="cls-1" x="10.44" y="127.88" width="0.55" height="4.03"/><rect class="cls-1" x="10.99" y="127.88" width="0.55" height="4.03"/><rect class="cls-1" x="11.53" y="127.88" width="0.55" height="4.03"/><rect class="cls-1" x="12.08" y="127.88" width="0.55" height="4.03"/><rect class="cls-1" x="12.63" y="127.88" width="0.55" height="4.03"/><rect class="cls-1" x="13.18" y="127.88" width="0.55" height="4.03"/><rect class="cls-1" x="13.73" y="127.88" width="0.55" height="4.03"/><rect class="cls-1" x="14.28" y="127.88" width="0.55" height="4.03"/><rect class="cls-1" x="14.83" y="127.88" width="0.55" height="4.03"/><rect class="cls-1" x="15.38" y="127.88" width="0.55" height="4.03"/><rect class="cls-1" x="15.93" y="127.88" width="0.55" height="4.03"/><rect class="cls-1" x="16.48" y="127.88" width="0.55" height="4.03"/><rect class="cls-1" x="17.03" y="127.88" width="0.55" height="4.03"/><rect class="cls-1" x="17.58" y="127.88" width="0.55" height="4.03"/><rect class="cls-1" x="18.13" y="127.88" width="0.55" height="4.03"/><rect class="cls-1" x="18.68" y="127.88" width="0.55" height="4.03"/><rect class="cls-1" x="19.22" y="127.88" width="0.55" height="4.03"/><rect class="cls-1" x="19.77" y="127.88" width="0.55" height="4.03"/><rect class="cls-1" x="20.32" y="127.88" width="0.55" height="4.03"/><rect class="cls-1" x="20.87" y="127.88" width="0.55" height="4.03"/><rect class="cls-1" x="21.42" y="127.88" width="0.55" height="4.03"/><rect class="cls-1" x="21.97" y="127.88" width="0.55" height="4.03"/><rect class="cls-1" x="22.52" y="127.88" width="0.55" height="4.03"/><rect class="cls-1" x="23.07" y="127.88" width="0.55" height="4.03"/><rect class="cls-1" x="23.62" y="127.88" width="0.55" height="4.03"/><rect class="cls-1" x="24.17" y="127.88" width="0.55" height="4.03"/><rect class="cls-1" x="24.72" y="127.88" width="0.55" height="4.03"/><rect class="cls-1" x="25.27" y="127.88" width="0.55" height="4.03"/><rect class="cls-1" x="25.82" y="127.88" width="0.55" height="4.03"/><rect class="cls-1" x="26.37" y="127.88" width="0.55" height="4.03"/><rect class="cls-1" x="26.91" y="127.88" width="0.55" height="4.03"/><rect class="cls-1" x="27.46" y="127.88" width="0.55" height="4.03"/><rect class="cls-1" x="28.01" y="127.88" width="0.55" height="4.03"/><rect class="cls-1" x="28.56" y="127.88" width="0.55" height="4.03"/><rect class="cls-1" x="29.11" y="127.88" width="0.55" height="4.03"/><rect class="cls-1" x="29.66" y="127.88" width="0.55" height="4.03"/><rect class="cls-1" x="30.21" y="127.88" width="0.55" height="4.03"/><rect class="cls-1" x="30.76" y="127.88" width="0.55" height="4.03"/><rect class="cls-1" x="31.31" y="127.88" width="0.55" height="4.03"/><rect class="cls-1" x="31.86" y="127.88" width="0.55" height="4.03"/><rect class="cls-1" x="32.41" y="127.88" width="0.55" height="4.03"/><rect class="cls-1" x="32.96" y="127.88" width="0.55" height="4.03"/><rect class="cls-1" x="33.51" y="127.88" width="0.55" height="4.03"/><rect class="cls-1" x="34.05" y="127.88" width="0.55" height="4.03"/><rect class="cls-1" x="34.6" y="127.88" width="0.55" height="4.03"/><rect class="cls-1" x="35.15" y="127.88" width="0.55" height="4.03"/><rect class="cls-1" x="35.7" y="127.88" width="0.55" height="4.03"/><rect class="cls-1" x="36.25" y="127.88" width="0.55" height="4.03"/><rect class="cls-1" x="36.8" y="127.88" width="0.55" height="4.03"/><rect class="cls-1" x="37.35" y="127.88" width="0.55" height="4.03"/><rect class="cls-1" x="37.9" y="127.88" width="0.55" height="4.03"/><rect class="cls-1" x="38.45" y="127.88" width="0.55" height="4.03"/><rect class="cls-1" x="39" y="127.88" width="0.55" height="4.03"/><rect class="cls-1" x="39.55" y="127.88" width="0.55" height="4.03"/><rect class="cls-1" x="40.1" y="127.88" width="0.55" height="4.03"/><rect class="cls-1" x="40.65" y="127.88" width="0.55" height="4.03"/><rect class="cls-1" x="41.2" y="127.88" width="0.55" height="4.03"/><rect class="cls-1" x="41.74" y="127.88" width="0.55" height="4.03"/><rect class="cls-1" x="42.29" y="127.88" width="0.55" height="4.03"/><rect class="cls-1" x="42.84" y="127.88" width="0.55" height="4.03"/><rect class="cls-1" x="43.39" y="127.88" width="0.55" height="4.03"/><rect class="cls-1" x="43.94" y="127.88" width="0.55" height="4.03"/><rect class="cls-1" x="44.49" y="127.88" width="0.55" height="4.03"/><rect class="cls-1" x="45.04" y="127.88" width="0.55" height="4.03"/><rect class="cls-1" x="45.59" y="127.88" width="0.55" height="4.03"/><rect class="cls-1" x="46.14" y="127.88" width="0.55" height="4.03"/><rect class="cls-1" x="46.69" y="127.88" width="0.55" height="4.03"/><rect class="cls-1" x="47.24" y="127.88" width="0.55" height="4.03"/><rect class="cls-1" x="47.79" y="127.88" width="0.55" height="4.03"/><rect class="cls-1" x="48.34" y="127.88" width="0.55" height="4.03"/><rect class="cls-1" x="48.89" y="127.88" width="0.55" height="4.03"/><rect class="cls-1" x="49.43" y="127.88" width="0.55" height="4.03"/><rect class="cls-1" x="49.98" y="127.88" width="0.55" height="4.03"/><rect class="cls-1" x="50.53" y="127.88" width="0.55" height="4.03"/><rect class="cls-1" x="51.08" y="127.88" width="0.55" height="4.03"/><rect class="cls-1" x="51.63" y="127.88" width="0.55" height="4.03"/><rect class="cls-1" x="52.18" y="127.88" width="0.55" height="4.03"/><rect class="cls-1" x="52.73" y="127.88" width="0.55" height="4.03"/><rect class="cls-1" x="53.28" y="127.88" width="0.55" height="4.03"/><rect class="cls-1" x="53.83" y="127.88" width="0.55" height="4.03"/><rect class="cls-1" x="54.38" y="127.88" width="0.55" height="4.03"/><rect class="cls-1" x="54.93" y="127.88" width="0.55" height="4.03"/><rect class="cls-1" x="55.48" y="127.88" width="0.55" height="4.03"/><rect class="cls-1" x="56.03" y="127.88" width="0.55" height="4.03"/><rect class="cls-1" x="56.57" y="127.88" width="0.55" height="4.03"/><rect class="cls-1" x="57.12" y="127.88" width="0.55" height="4.03"/><rect class="cls-1" x="57.67" y="127.88" width="0.55" height="4.03"/><rect class="cls-1" x="58.22" y="127.88" width="0.55" height="4.03"/><rect class="cls-1" x="58.77" y="127.88" width="0.55" height="4.03"/><rect class="cls-1" x="59.32" y="127.88" width="0.55" height="4.03"/><rect class="cls-1" x="59.87" y="127.88" width="0.55" height="4.03"/><rect class="cls-1" x="60.42" y="127.88" width="0.55" height="4.03"/><rect class="cls-1" x="60.97" y="127.88" width="0.55" height="4.03"/><rect class="cls-1" x="61.52" y="127.88" width="0.55" height="4.03"/><rect class="cls-1" x="62.07" y="127.88" width="0.55" height="4.03"/><rect class="cls-1" x="62.62" y="127.88" width="0.55" height="4.03"/><rect class="cls-1" x="63.17" y="127.88" width="0.55" height="4.03"/><rect class="cls-1" x="63.72" y="127.88" width="0.55" height="4.03"/><rect class="cls-1" x="64.26" y="127.88" width="0.55" height="4.03"/><rect class="cls-1" x="64.81" y="127.88" width="0.55" height="4.03"/><rect class="cls-1" x="65.36" y="127.88" width="0.55" height="4.03"/><rect class="cls-1" x="65.91" y="127.88" width="0.55" height="4.03"/><rect class="cls-1" x="66.46" y="127.88" width="0.55" height="4.03"/><rect class="cls-1" x="67.01" y="127.88" width="0.55" height="4.03"/><rect class="cls-1" x="67.56" y="127.88" width="0.55" height="4.03"/><rect class="cls-1" x="68.11" y="127.88" width="0.55" height="4.03"/><rect class="cls-1" x="68.66" y="127.88" width="0.55" height="4.03"/><rect class="cls-1" x="69.21" y="127.88" width="0.55" height="4.03"/><rect class="cls-1" x="69.76" y="127.88" width="0.55" height="4.03"/><rect class="cls-1" x="70.31" y="127.88" width="0.55" height="4.03"/><rect class="cls-1" x="70.86" y="127.88" width="0.55" height="4.03"/><rect class="cls-1" x="71.41" y="127.88" width="0.55" height="4.03"/><rect class="cls-1" x="71.95" y="127.88" width="0.55" height="4.03"/><rect class="cls-1" x="72.5" y="127.88" width="0.55" height="4.03"/><rect class="cls-1" x="73.05" y="127.88" width="0.55" height="4.03"/><rect class="cls-1" x="73.6" y="127.88" width="0.55" height="4.03"/><rect class="cls-1" x="74.15" y="127.88" width="0.55" height="4.03"/><rect class="cls-1" x="74.7" y="127.88" width="0.55" height="4.03"/><rect class="cls-1" x="75.25" y="127.88" width="0.55" height="4.03"/><rect class="cls-1" x="75.8" y="127.88" width="0.55" height="4.03"/><rect class="cls-1" x="76.35" y="127.88" width="0.55" height="4.03"/><rect class="cls-1" x="76.9" y="127.88" width="0.55" height="4.03"/><rect class="cls-1" x="77.45" y="127.88" width="0.55" height="4.03"/><rect class="cls-1" x="78" y="127.88" width="0.55" height="4.03"/><rect class="cls-1" x="78.55" y="127.88" width="0.55" height="4.03"/><rect class="cls-1" x="79.1" y="127.88" width="0.55" height="4.03"/><rect class="cls-1" x="79.64" y="127.88" width="0.55" height="4.03"/><rect class="cls-1" x="80.19" y="127.88" width="0.55" height="4.03"/><rect class="cls-1" x="80.74" y="127.88" width="0.55" height="4.03"/><rect class="cls-1" x="81.29" y="127.88" width="0.55" height="4.03"/><rect class="cls-1" x="81.84" y="127.88" width="0.55" height="4.03"/><rect class="cls-1" x="82.39" y="127.88" width="0.55" height="4.03"/><rect class="cls-1" x="82.94" y="127.88" width="0.55" height="4.03"/><rect class="cls-1" x="83.49" y="127.88" width="0.55" height="4.03"/><rect class="cls-1" x="84.04" y="127.88" width="0.55" height="4.03"/><rect class="cls-1" x="84.59" y="127.88" width="0.55" height="4.03"/><rect class="cls-1" x="85.14" y="127.88" width="0.55" height="4.03"/><rect class="cls-1" x="85.69" y="127.88" width="0.55" height="4.03"/><rect class="cls-1" x="86.24" y="127.88" width="0.55" height="4.03"/><rect class="cls-1" x="86.78" y="127.88" width="0.55" height="4.03"/><rect class="cls-1" x="87.33" y="127.88" width="0.55" height="4.03"/><rect class="cls-1" x="87.88" y="127.88" width="0.55" height="4.03"/><rect class="cls-1" x="88.43" y="127.88" width="0.55" height="4.03"/><rect class="cls-1" x="88.98" y="127.88" width="0.55" height="4.03"/><rect class="cls-1" x="89.53" y="127.88" width="0.55" height="4.03"/><rect class="cls-1" x="90.08" y="127.88" width="0.55" height="4.03"/><rect class="cls-1" x="90.63" y="127.88" width="0.55" height="4.03"/><rect class="cls-1" x="91.18" y="127.88" width="0.55" height="4.03"/><rect class="cls-1" x="91.73" y="127.88" width="0.55" height="4.03"/><rect class="cls-1" x="92.28" y="127.88" width="0.55" height="4.03"/><rect class="cls-1" x="92.83" y="127.88" width="0.55" height="4.03"/><rect class="cls-1" x="93.38" y="127.88" width="0.55" height="4.03"/><rect class="cls-1" x="93.93" y="127.88" width="0.55" height="4.03"/><rect class="cls-1" x="94.47" y="127.88" width="0.55" height="4.03"/><rect class="cls-1" x="95.02" y="127.88" width="0.55" height="4.03"/><rect class="cls-1" x="95.57" y="127.88" width="0.55" height="4.03"/><rect class="cls-1" x="96.12" y="127.88" width="0.55" height="4.03"/><rect class="cls-1" x="96.67" y="127.88" width="0.55" height="4.03"/><rect class="cls-1" x="97.22" y="127.88" width="0.55" height="4.03"/><rect class="cls-1" x="97.77" y="127.88" width="0.55" height="4.03"/><rect class="cls-1" x="98.32" y="127.88" width="0.55" height="4.03"/><rect class="cls-1" x="98.87" y="127.88" width="0.55" height="4.03"/><rect class="cls-1" x="99.42" y="127.88" width="0.55" height="4.03"/><rect class="cls-1" x="99.97" y="127.88" width="0.55" height="4.03"/><rect class="cls-1" x="100.52" y="127.88" width="0.55" height="4.03"/><rect class="cls-1" x="101.07" y="127.88" width="0.55" height="4.03"/><rect class="cls-1" x="101.62" y="127.88" width="0.55" height="4.03"/><rect class="cls-1" x="102.16" y="127.88" width="0.55" height="4.03"/><rect class="cls-1" x="102.71" y="127.88" width="0.55" height="4.03"/><rect class="cls-1" x="103.26" y="127.88" width="0.55" height="4.03"/><rect class="cls-1" x="103.81" y="127.88" width="0.55" height="4.03"/><rect class="cls-1" x="104.36" y="127.88" width="0.55" height="4.03"/><rect class="cls-1" x="104.91" y="127.88" width="0.55" height="4.03"/><rect class="cls-1" x="105.46" y="127.88" width="0.55" height="4.03"/><rect class="cls-1" x="106.01" y="127.88" width="0.55" height="4.03"/><rect class="cls-1" x="106.56" y="127.88" width="0.55" height="4.03"/><rect class="cls-1" x="107.11" y="127.88" width="0.55" height="4.03"/><rect class="cls-1" x="107.66" y="127.88" width="0.55" height="4.03"/><rect class="cls-1" x="108.21" y="127.88" width="0.55" height="4.03"/><rect class="cls-1" x="108.76" y="127.88" width="0.55" height="4.03"/><rect class="cls-1" x="109.31" y="127.88" width="0.55" height="4.03"/><rect class="cls-1" x="109.85" y="127.88" width="0.55" height="4.03"/><rect class="cls-1" x="110.4" y="127.88" width="0.55" height="4.03"/><rect class="cls-1" x="110.95" y="127.88" width="0.55" height="4.03"/><rect class="cls-1" x="111.5" y="127.88" width="0.55" height="4.03"/><rect class="cls-1" x="112.05" y="127.88" width="3.88" height="4.03"/><rect class="cls-1" x="115.93" y="127.88" width="3.88" height="4.03"/><rect class="cls-1" x="119.81" y="127.88" width="3.88" height="4.03"/><rect class="cls-1" x="123.68" y="127.88" width="3.88" height="4.03"/><rect class="cls-1" x="127.56" y="127.88" width="3.88" height="4.03"/><rect class="cls-1" x="131.44" y="127.88" width="3.88" height="4.03"/><rect class="cls-1" x="135.32" y="127.88" width="3.88" height="4.03"/><rect class="cls-1" x="139.19" y="127.88" width="3.88" height="4.03"/><rect class="cls-1" x="143.07" y="127.88" width="3.88" height="4.03"/><rect class="cls-1" x="146.95" y="127.88" width="3.88" height="4.03"/><rect class="cls-1" x="150.83" y="127.88" width="3.88" height="4.03"/><rect class="cls-1" x="154.7" y="127.88" width="3.88" height="4.03"/><rect class="cls-1" x="158.58" y="127.88" width="3.88" height="4.03"/><rect class="cls-1" x="162.46" y="127.88" width="3.88" height="4.03"/><rect class="cls-1" x="166.34" y="127.88" width="3.88" height="4.03"/><rect class="cls-1" x="170.21" y="127.88" width="3.88" height="4.03"/><rect class="cls-1" x="174.09" y="127.88" width="3.88" height="4.03"/><rect class="cls-1" x="177.97" y="127.88" width="3.88" height="4.03"/><rect class="cls-1" x="181.85" y="127.88" width="3.88" height="4.03"/><rect class="cls-1" x="185.72" y="127.88" width="3.88" height="4.03"/><rect class="cls-1" x="189.6" y="127.88" width="3.88" height="4.03"/><rect class="cls-1" x="193.48" y="127.88" width="3.88" height="4.03"/><rect class="cls-1" x="197.36" y="127.88" width="3.88" height="4.03"/><rect class="cls-1" x="201.23" y="127.88" width="3.88" height="4.03"/><rect class="cls-1" x="205.11" y="127.88" width="2.71" height="4.03"/><rect class="cls-1" x="207.82" y="127.88" width="2.71" height="4.03"/><rect class="cls-1" x="210.53" y="127.88" width="2.71" height="4.03"/><rect class="cls-1" x="213.24" y="127.88" width="2.71" height="4.03"/><rect class="cls-1" x="215.94" y="127.88" width="2.71" height="4.03"/><rect class="cls-1" x="218.65" y="127.88" width="2.71" height="4.03"/><rect class="cls-1" x="221.36" y="127.88" width="2.71" height="4.03"/><rect class="cls-1" x="224.07" y="127.88" width="2.71" height="4.03"/><rect class="cls-1" x="226.78" y="127.88" width="2.71" height="4.03"/><rect class="cls-1" x="229.48" y="127.88" width="2.71" height="4.03"/><rect class="cls-1" x="232.19" y="127.88" width="2.71" height="4.03"/><rect class="cls-1" x="234.9" y="127.88" width="2.71" height="4.03"/><rect class="cls-1" x="237.61" y="127.88" width="2.71" height="4.03"/><rect class="cls-1" x="240.32" y="127.88" width="2.71" height="4.03"/><rect class="cls-1" x="243.02" y="127.88" width="2.71" height="4.03"/><rect class="cls-1" x="245.73" y="127.88" width="2.71" height="4.03"/><rect class="cls-1" x="248.44" y="127.88" width="2.71" height="4.03"/><rect class="cls-1" x="251.15" y="127.88" width="2.71" height="4.03"/><rect class="cls-1" x="253.86" y="127.88" width="2.71" height="4.03"/><rect class="cls-1" x="256.56" y="127.88" width="2.71" height="4.03"/><rect class="cls-1" x="259.27" y="127.88" width="2.71" height="4.03"/><rect class="cls-1" x="261.98" y="127.88" width="2.71" height="4.03"/><rect class="cls-1" x="264.69" y="127.88" width="2.71" height="4.03"/><rect class="cls-1" x="267.4" y="127.88" width="2.71" height="4.03"/><rect class="cls-1" x="270.11" y="127.88" width="2.71" height="4.03"/><rect class="cls-1" x="272.81" y="127.88" width="2.71" height="4.03"/><rect class="cls-1" x="275.52" y="127.88" width="2.71" height="4.03"/></g><path class="cls-1" d="M276.52,136.84a2,2,0,0,0-2.84.21l-.43.5-.45.46-.4.34-.38.27-.33.17-.09,0-.12,0-.11,0H271l-.12,0-.11,0-.13-.05-.16-.08-.13-.08-.41-.29-.4-.35-.46-.48-.44-.51-.5-.65-.54-.78-.5-.77-.52-.87-.5-.87-.53-1-.55-1-.52-1L264,129l-.57-1.1-.54-1-.56-1.08-.53-1-.56-1-.58-1-.56-.93-.58-.91-.56-.82-.58-.79-.06-.08-.56-.69-.08-.09-.53-.57-.1-.1-.55-.51-.14-.12-.57-.44-.17-.12-.54-.33-.23-.13-.56-.25-.21-.08-.29-.09-.14,0-.26-.06-.11,0-.12,0-.1,0-.13,0h-1.25l-.14,0-.14,0-.18,0-.13,0-.26.07-.14,0-.26.09-.14.05L250,116l-.13.06-.27.13-.11.06-.29.17-.14.1-.52.37-.15.11-.54.46-.12.11-.56.57-.09.1-.53.61-.07.08-.55.71-.06.08-.57.81-.58.88-.59,1-.55,1-.56,1-.58,1.09-.54,1-.56,1.1-.53,1-.54,1.09-.56,1.13-.53,1-.54,1.07-.56,1.08-.52,1-.54,1-.51.87-.52.85-.54.83-.46.65-.51.67-.49.58-.45.47-.42.37-.39.3-.34.21-.35.15-.11,0-.14,0h-.51l-.15,0-.13,0-.15-.06-.17-.09-.13-.08-.39-.27-.42-.35-.4-.4-.47-.52-.5-.63-.5-.68-.51-.76-.54-.86-.5-.87-.54-1-.5-.95-.53-1-.56-1.11-.52-1.07-.55-1.14-.51-1.08-.54-1.13-.57-1.18-.53-1.1-.55-1.14-.58-1.17-.54-1.08-.57-1.09-.54-1-.56-1,0,0v0l-.56-.94-.56-.88-.59-.86,0-.06-.57-.77-.06-.08-.54-.65-.07-.09-.56-.6-.09-.09-.52-.5-.12-.11-.55-.44-.16-.11-.56-.37-.2-.12-.53-.27-.17-.08-.25-.1-.12,0-.27-.09-.13,0-.25-.06-.13,0-.14,0-.19,0h-1.39l-.16,0-.14,0-.13,0-.19,0-.07,0-.13,0-.12,0-.27.09-.18.06-.52.22-.23.11-.54.31-.17.11-.56.41-.14.11-.53.46-.11.1-.55.56-.05.06,0,0-.57.66-.07.09-.54.69-.05.07-.55.79-.56.87-.58,1-.59,1-.55,1-.57,1.1-.59,1.18-.55,1.14-.57,1.22-.53,1.16-.55,1.22-.57,1.28-.53,1.2-.55,1.25-.52,1.17-.54,1.2-.56,1.22-.52,1.13-.54,1.14-.56,1.15-.53,1-.54,1-.5.91-.52.88-.54.86-.46.68-.52.71-.49.61-.45.5-.45.43-.38.31-.37.25-.37.19-.12,0-.14,0-.15,0H184l-.14,0-.17-.05-.14-.06-.14-.07-.37-.23-.4-.3-.41-.37-.44-.46-.49-.59-.46-.61-.53-.78-.53-.85-.51-.87-.52-1-.51-1-.53-1.07-.55-1.17-.52-1.14-.54-1.24-.51-1.18-.54-1.27-.55-1.34L174,130l-.54-1.35-.57-1.41-.53-1.32-.56-1.38-.53-1.29-.54-1.32-.57-1.35-.53-1.25-.56-1.26-.58-1.28-.55-1.17-.57-1.16v0l-.52-1-.57-1-.59-1-.57-.91,0-.06-.55-.8-.05-.07-.52-.69-.07-.08-.54-.64-.09-.1-.56-.58-.11-.11-.53-.47-.15-.12-.55-.4-.19-.12-.57-.33-.23-.11-.54-.22-.22-.07-.25-.07-.12,0-.27-.06-.16,0-.13,0-.15,0h-1.21l-.15,0-.21,0-.08,0-.13,0-.14,0-.29.09-.15,0-.28.11-.13.05-.26.12-.17.09-.55.33-.19.13-.53.39-.15.13-.54.49-.11.11-.56.6,0,.06,0,0-.53.65-.07.09-.55.76-.05.08-.57.87,0,.07-.54.9-.59,1.07-.55,1.06-.57,1.16-.59,1.26-.55,1.25-.57,1.34-.53,1.31-.55,1.39-.57,1.48-.54,1.42-.55,1.51-.57,1.59-.54,1.51-.56,1.57-.52,1.48-.54,1.54-.56,1.59-.53,1.48-.55,1.52-.57,1.55-.53,1.43-.55,1.44-.52,1.31-.54,1.32-.56,1.3-.52,1.17-.54,1.14-.5,1-.52,1-.53.92-.47.75-.49.72-.49.64-.44.5-.44.42-.34.27-.37.23-.12.06-.1,0-.13,0h0l-.08,0h-.41l-.13,0-.1,0-.15-.08-.33-.21-.38-.32-.43-.43-.43-.51-.48-.65-.52-.8-.48-.83-.54-1-.49-1-.52-1.13-.55-1.27-.51-1.27-.54-1.4-.56-1.53-.52-1.49-.55-1.62-.52-1.57-.54-1.67-.56-1.79-.53-1.72-.55-1.82-.52-1.72h0l-.54-1.82-.56-1.89-.53-1.78-.55-1.85-.57-1.91-.54-1.79-.56-1.83-.53-1.7-.55-1.73-.57-1.75-.54-1.61-.56-1.61-.58-1.62-.55-1.46-.57-1.45-.54-1.28-.57-1.27-.6-1.22-.56-1.07,0-.08-.56-1-.05-.08-.52-.8-.07-.1-.54-.73-.1-.12-.56-.65-.13-.13-.53-.5-.19-.16-.55-.4-.19-.12-.26-.15-.14-.07-.28-.13-.2-.08-.29-.1-.08,0-.12,0-.18,0-.14,0-.21,0h-1.29l-.13,0-.08,0h-.07l-.2,0-.17,0-.29.09-.17.06-.27.11-.24.12-.52.31-.24.17-.55.44-.18.17-.56.59-.13.14-.53.67-.09.12-.55.82-.06.1-.52.88,0,.09-.54,1,0,.07-.56,1.18,0,.07-.52,1.22-.57,1.42-.58,1.58-.55,1.59-.57,1.74-.53,1.71L90,111.7l-.57,2-.53,2-.55,2.11L87.79,120l-.54,2.17-.56,2.31-.53,2.21-.55,2.33L85,131.51l-.53,2.32L84,136.25l-.52,2.28-.54,2.37-.56,2.45-.53,2.28L81.27,148l-.57,2.39-.53,2.21-.56,2.24-.52,2-.54,2.06L78,161l-.52,1.85h0l-.54,1.82-.57,1.79L75.83,168l-.54,1.51-.51,1.3-.5,1.18-.53,1.12-.48.89-.48.78-.4.53-.37.4-.32.25-.07,0-.11-.07-.08-.06-.35-.35-.41-.54-.48-.79-.46-.91-.52-1.18-.49-1.28-.53-1.53-.55-1.75-.52-1.81-.54-2L66,161.38,65.5,159l-.55-2.58-.52-2.57-.54-2.81L63.31,148l-.53-3-.55-3.25-.52-3.18-.54-3.4-.56-3.65L60.08,128l-.55-3.75-.57-4-.54-3.8-.56-4-.52-3.82-.55-4-.56-4.21-.53-4-.55-4.15-.52-3.9-.54-4-.56-4.19L53,76.24l-.55-4-.57-4.14-.54-3.84-.56-3.93-.52-3.62L49.72,53l-.56-3.73-.53-3.41-.55-3.43L47.5,39,47,35.88l-.56-3.09L45.86,30l-.55-2.73-.57-2.67-.54-2.36L43.64,20l-.53-2-.56-1.9V16L42,14.3l0-.06-.53-1.45,0-.09-.55-1.31-.05-.11-.57-1.15L40.13,10l-.54-.88-.13-.19-.55-.71L38.73,8l-.29-.28-.15-.13L38,7.37l-.21-.15L37.54,7,37.35,7l-.13-.06-.16-.07-.14-.05-.19-.06-.15,0-.13,0h-.08l-.13,0-.15,0H35.4l-.15,0h0l-.09,0h-.07l-.1,0-.16,0-.08,0-.08,0-.18.06-.14.06-.21.1-.27.15-.22.14-.25.18-.14.12L33,7.8l-.15.15-.28.31-.14.17-.56.78-.12.18-.53.93-.07.14-.55,1.16,0,.11-.57,1.42,0,.09-.54,1.53,0,.06-.56,1.78-.54,1.9-.56,2.15v0h0l-.57,2.36-.54,2.42L26,28.15l-.53,2.66-.55,2.9-.56,3.15-.53,3.09-.55,3.34-.57,3.58-.54,3.48-.56,3.72-.53,3.57-.54,3.8-.56,4-.53,3.84-.55,4-.52,3.83-.54,4-.56,4.19-.53,4-.55,4.11-.57,4.26-.53,4-.56,4.12L14,109.64l-.54,3.94-.56,4-.53,3.74-.55,3.81L11.25,129l-.54,3.55-.56,3.59-.52,3.27-.54,3.29L8.52,146,8,149l-.55,2.94-.52,2.64-.54,2.6-.56,2.55L5.31,162l-.54,2.17-.56,2.09L3.68,168l-.54,1.69-.48,1.36-.53,1.32-.52,1.15-.5.94a2,2,0,0,0,3.56,1.9h0l.53-1,.06-.12L5.82,174l0-.09.54-1.37,0-.07L7,171l.58-1.8.55-1.88.58-2.17.56-2.24.54-2.3.57-2.6.54-2.65.52-2.68.56-3,.54-3,.57-3.31.55-3.31.53-3.29.56-3.61.54-3.56.57-3.88.55-3.82.53-3.75.56-4,.54-4,.52-3.84.56-4.12.54-4L20.18,94l.55-4.11.53-4,.56-4.19.54-4,.52-3.82.55-4L24,66l.56-4,.54-3.79.52-3.56.56-3.7.54-3.46.57-3.56.55-3.31.53-3.07.56-3.12.54-2.86L29.95,29l.55-2.62L31,24l.55-2.29h0l.55-2.1.51-1.8.53-1.69.51-1.46.53-1.31.49-1,.44-.76.44-.61.13-.14,0,0,.07.07.4.52.43.71.5,1,.51,1.21.5,1.36.56,1.7.52,1.8.5,1.9.55,2.22.53,2.29.56,2.62.54,2.69.52,2.73L43,36.59l.54,3.08.57,3.41.55,3.41.53,3.39.56,3.71.54,3.67.52,3.61.56,3.92.54,3.83.57,4.13.55,4,.53,3.91.56,4.19.54,4,.52,3.9L51.7,97l.53,4,.56,4.21.55,4,.52,3.83.56,4,.54,3.82.57,4,.55,3.76.53,3.53.56,3.66.54,3.42.53,3.2.55,3.28.54,3,.57,3.1.55,2.85.53,2.61.56,2.63.55,2.39.58,2.37.56,2.13.54,1.9.58,1.85.56,1.63,0,.07.53,1.35,0,.08.55,1.27,0,0,0,.07h0l.54,1,.07.13.57.93.11.17.55.73.17.2.53.53.19.17.27.22.19.13.29.18.12.07.13.07.15.07.14.06.1,0,.13,0,.14,0,.12,0,.14,0,.14,0,.1,0h.11l.17,0H72l.17,0h.07l.11,0,.13,0,.13,0,.08,0,.12,0,.2-.07.26-.11.2-.1.29-.16.25-.17.56-.44.23-.21.54-.59.14-.16.52-.7.1-.14.56-.89.06-.11.53-1,0-.09.57-1.19,0-.07.55-1.29.55-1.41.58-1.61.55-1.65.58-1.86.56-1.88h0l.53-1.87.57-2.1.55-2.09.52-2.07.56-2.26.54-2.23.57-2.41.55-2.36.53-2.29.56-2.45.54-2.37.52-2.28.55-2.42.53-2.31.56-2.44.54-2.32.52-2.19.56-2.29L91.7,121l.57-2.23.55-2.08.52-1.93.56-2,.54-1.81.51-1.66.55-1.68.52-1.51.55-1.5.53-1.32.48-1.11.55-1.15.49-.92.46-.79.48-.71.43-.54.41-.42.33-.27.28-.17.05,0,.12,0h.13l.1,0,.14,0,.1,0,.1.06.36.27.36.35.46.53.45.61.46.7.51.88.51,1,.54,1.11.52,1.16.5,1.2.55,1.38.52,1.39.56,1.56.54,1.57.53,1.57.56,1.72.54,1.71.52,1.68.55,1.82.54,1.77.57,1.9.55,1.85.53,1.78.56,1.9.54,1.82h0l.52,1.73.55,1.83.53,1.74.57,1.82.55,1.71.54,1.61.56,1.65.54,1.54.58,1.58.56,1.45.54,1.34.58,1.35.56,1.22.55,1.12.59,1.1,0,.06.53.92.05.09.57.88.06.09.55.75.08.11.53.63.11.13.56.57.14.13.54.45.19.14.52.34.17.1.29.15.14.06.27.11.15.06.26.09.14,0,.13,0H129l.14,0,.11,0,.14,0,.18,0h1.14l.14,0,.14,0,.19,0,.08,0,.13,0,.12,0,.28-.08.18-.06.28-.11.12-.05.26-.12.19-.1.54-.34.18-.13.52-.41.15-.13.56-.54.11-.11.54-.61.09-.11.57-.74.06-.09.55-.8,0-.07.53-.85.6-1,.58-1.08.54-1.1.57-1.22.55-1.24.58-1.36.56-1.37.53-1.35.57-1.47.54-1.46.58-1.57L144,138l.54-1.49.57-1.6.54-1.54.53-1.48.55-1.57.53-1.5.57-1.57.55-1.48.53-1.4.56-1.46.53-1.36.51-1.26.54-1.29.52-1.19.55-1.19.53-1.08.5-1,.54-1,.47-.78.54-.82.48-.67.46-.56.46-.49.4-.37.36-.27.37-.22.12-.05.12,0,.16,0h0l.11,0h.4l.12,0,.09,0,.31.13.36.21.38.27.4.35.45.47.48.57.45.59.51.73.52.82.53.9.52.95.48.92h0l.56,1.13.53,1.11.56,1.22.54,1.23.52,1.22.56,1.33.53,1.3.52,1.28.55,1.36.53,1.32.57,1.41.55,1.35.53,1.3.56,1.36.55,1.3.52,1.22.56,1.27.54,1.19.58,1.23.55,1.13.54,1,.57,1.06.57,1,.6,1,.59.87.05.07.53.71.07.08.56.67.09.1.54.57.1.1.52.47.14.12.55.42.17.12.54.32.14.08.27.14.14.06.3.12.13,0,.29.09.14,0,.26.07.13,0,.14,0,.19,0,.19,0H185l.13,0,.14,0,.09,0,.29-.07.13,0,.27-.08.15-.05.29-.11.18-.08.57-.29.2-.12.55-.36.15-.11.53-.42.13-.11.56-.54.09-.09.54-.59.08-.1.57-.71.06-.07.55-.75,0-.07.53-.79.61-1,.57-1,.55-1,.58-1.08.55-1.1.58-1.19.56-1.18.54-1.16.57-1.25.54-1.22L198,133l.55-1.25.53-1.2.56-1.27.54-1.2.52-1.14.55-1.18.53-1.1.56-1.13.54-1,.51-1,.54-.95.52-.85L205,119l.5-.71.46-.59.5-.58.44-.45.41-.36.42-.3.32-.19.32-.14.11,0,.07,0,.09,0h.55l.12,0,.16.05.09,0,.35.18.38.25.4.33.42.4.47.51.48.58.51.68.54.78.49.78.53.88.52.93.5.93.54,1,.52,1,.56,1.13.54,1.12.53,1.09.56,1.18.54,1.13.52,1.09L220,133l.53,1.09.58,1.15.55,1.08.53,1,.58,1,.55,1,.6,1,.58.88.57.79.06.08.56.71.07.09.54.6.09.09.52.51.12.11.55.47.15.11.54.37.14.09.27.16.11.06.29.15.15.07.29.11.11,0,.26.09.16,0,.27.06.08,0,.14,0,.12,0,.14,0,.2,0h1.17l.12,0h.07l.14,0,.12,0,.26-.06.13,0,.29-.09.22-.08.57-.25.22-.12.55-.33.18-.12.53-.4.13-.11.56-.5.12-.11.54-.56.08-.09.58-.68.06-.08.55-.72,0-.06.53-.76.61-.93.57-.94.54-.95.58-1,.55-1,.58-1.12.55-1.1.53-1.06.57-1.13.54-1.09.52-1,.55-1.08.53-1,.56-1,.53-1,.51-.88.53-.87.51-.77.5-.72.49-.62.44-.51.46-.46.41-.35.37-.26.17-.1.16-.08.14-.06.09,0,.15,0h.44l.15,0,.12,0,.32.14.32.2.42.33.43.4.43.46.5.61.51.69.48.7.52.81.51.85.54.95.53,1,.51,1,.55,1.05.53,1,.57,1.11.55,1.07.53,1,.57,1.07.56,1,.54.94.57,1,.57.89.6.88.05.07.54.72,0,0,0,0,.53.62.09.1.56.58.11.11.54.47.17.13.57.41.17.11.29.16.12.06.27.13.13.06.27.11.14.05.26.08.15,0,.26.06.14,0,.14,0h1.22l.17,0h.1l.14,0,.13,0,.25-.06.17,0,.27-.09.13,0,.25-.1.18-.08.53-.28.22-.14.57-.4.16-.12.55-.47.13-.12.52-.54.08-.09.49-.57A2,2,0,0,0,276.52,136.84Z"/></g></svg>