<svg id="Layer_1" data-name="Layer 1" xmlns="http://www.w3.org/2000/svg" viewBox="0 0 176 60"><defs><style>.cls-1{fill:#fff;}</style></defs><title>Artboard 1</title><path class="cls-1" d="M88.4,31.7c0,3.4-3.2,6.6-8.3,6.6-3.2,0-5.5-1.6-5.5-3.7,0-1.9,1.3-3.4,4.4-3.8l9.4-.8ZM81.9,12.9c-6.6,0-11,2.9-12.8,7.2l5.4,3.4c1.1-3.2,4.3-4.3,7.5-4.3,3.4,0,6.2,1.3,6.2,3.8v.3c0,.8-.3,1.3-1.6,1.4l-9.1.6c-5.5.5-9.8,4-9.8,9.5s5.3,9.6,11.5,9.6a12.73,12.73,0,0,0,9.2-3.8V44h6.9V24.9c0-7.6-5.4-12-13.4-12Z"/><path class="cls-1" d="M7,37.5h7.1c4.5,0,7.2-2.9,7.2-7.1s-2.7-7.2-7.2-7.2H7ZM7,16.7h7.1c3,0,4.7-1.8,4.7-4.6s-1.7-4.6-4.7-4.6H7Zm14.6,2.8a12.24,12.24,0,0,1,6.6,10.9A13.55,13.55,0,0,1,14.4,44.1H.1V.9h14c7.2,0,11.5,4.6,11.5,11.2a8.88,8.88,0,0,1-4,7.4Z"/><path class="cls-1" d="M113.6,31.4a5.7,5.7,0,0,0,5.9-6,6,6,0,1,0-11.9,0A5.72,5.72,0,0,0,113.6,31.4Zm-12.1,6.2a9.34,9.34,0,0,1,3.4-3.2,11.77,11.77,0,0,1-4.1-9,12.11,12.11,0,0,1,12.4-12.5c1.9,0,4.9.7,6.3,2.4V13.2h6.8V25.4a11.39,11.39,0,0,1-4.2,9A13.49,13.49,0,0,1,128,45.6c0,8.6-6.4,14.2-14.4,14.2-7.6,0-13.1-4.8-14.3-11.7h7c.9,3,3.1,5.3,7.3,5.3,4.5,0,7.5-3.2,7.5-7.8s-3-7.8-7.5-7.8a7.52,7.52,0,0,0-6.4,3.5l-5.7-3.7Z"/><polyline class="cls-1" points="132.4 0.9 139.2 0.2 139.2 44.1 132.4 44.1 132.4 0.9"/><path class="cls-1" d="M39.8,25a8.7,8.7,0,0,1,16.4,0Zm23.9,3.7a15.65,15.65,0,1,0-31.3,0h0A15.62,15.62,0,0,0,48.2,44.4a17.41,17.41,0,0,0,13.9-6.2l-5.4-3.5c-4,5.1-15.7,4.4-17.2-3.7h24a16.41,16.41,0,0,0,.2-2.3Z"/><path class="cls-1" d="M151.9,25a8.7,8.7,0,0,1,16.4,0Zm23.9,3.7a15.7,15.7,0,1,0-31.4,0h0a15.65,15.65,0,0,0,15.9,15.7,17.41,17.41,0,0,0,13.9-6.2l-5.4-3.5c-4,5.1-15.7,4.4-17.2-3.7h24a16.41,16.41,0,0,0,.2-2.3Z"/></svg>