<svg id="Layer_1" data-name="Layer 1" xmlns="http://www.w3.org/2000/svg" viewBox="0 0 1503.17 88.06"><defs><style>.cls-1{fill:#adbddf;}.cls-2{fill:#fff;}.cls-3{fill:#849dcf;}</style></defs><title>gmp-logo-monochrome</title><path class="cls-1" d="M82.87,18.64l-17.46,9c-4.18-5.38-10.7-8.38-20.29-8.38-14.63,0-24.84,10.38-24.84,24.52A24.86,24.86,0,0,0,45.37,68.92c9,0,16.11-2.88,20.54-7.13V53.54H40.45V37.78H83.73V69.3C83.12,70.55,70,88.06,45.49,88.06,17.83,88.06,0,66.92,0,44,0,20.39,19.06,0,45.37,0A45.7,45.7,0,0,1,82.87,18.64Z"/><path class="cls-1" d="M119.12,67.55H163v19H99V1.5h20.16Z"/><path class="cls-1" d="M254,44c0,24.27-19.43,44-43.16,44-24,0-43.16-19.76-43.16-44S186.85,0,210.83,0C234.56,0,254,19.89,254,44Zm-67.87,0a24.83,24.83,0,0,0,24.72,25c13.4,0,24.47-11.13,24.47-25a24.59,24.59,0,1,0-49.19,0Z"/><path class="cls-1" d="M340,61.79c0,13.89-8.73,24.77-31.6,24.77H267.24V1.5h36.27c24.22,0,31.84,9.76,31.84,23.39,0,8.76-6,14.88-7.87,16.26C335.61,45.28,340,52.66,340,61.79ZM316.18,27.52c0-5.76-3.69-8.51-11.44-8.51H287.41V36.77h17.34C313.48,36.77,316.18,34.15,316.18,27.52ZM306.1,52.41H287.41V68.92H306.1q12.18,0,12.17-8.26C318.27,54.41,314.09,52.41,306.1,52.41Z"/><path class="cls-1" d="M409.11,73.3H368.79l-5.53,13.26h-21.4L377.64,1.5h22.5L436,86.56H414.53Zm-7-16.76-13-31.77L375.79,56.54Z"/><path class="cls-1" d="M469.83,67.55h43.9v19H449.66V1.5h20.16Z"/><path class="cls-2" d="M639.75,86.83H619V43.29L598.52,86.83h-23L555,43.29V86.83H534.41V1.5h22.88l29.79,62.62L616.74,1.5h23Z"/><path class="cls-2" d="M722.48,73.53H681.25l-5.66,13.3H653.73L690.3,1.5h23L750,86.83H728Zm-7.16-16.82L702,24.84,688.42,56.72Z"/><path class="cls-2" d="M824.08,20.58h-30.3V86.83H772.91V20.58H742.62V1.5h81.46Z"/><path class="cls-2" d="M917.11,86.83H896.37V53.7H858.79V86.83H838.17V1.5h20.62V34.63h37.58V1.5h20.74Z"/><path class="cls-3" d="M1006,34.75c0,16.27-10,32-30.5,32H958.12V85.49H938.69V3h37C996.15,3,1006,18.73,1006,34.75ZM958.12,21.4V48.47h15.31c7.77,0,13.07-4.73,13.07-13.72s-5.3-13.23-13.07-13.35Z"/><path class="cls-3" d="M1088.09,33.91c0,11.89-5.65,22-14.25,26.7l16.48,24.88h-24L1054.3,65h-14.13V85.49h-19.31V3h38.74C1075.84,3,1088.09,15.94,1088.09,33.91ZM1040.16,21.4V46.53h16.6c6.6,0,11.9-5.7,11.9-12.62s-5.3-12.51-11.78-12.51Z"/><path class="cls-3" d="M1179.21,44.22c0,23.55-18.6,42.73-41.33,42.73-23,0-41.33-19.18-41.33-42.73S1114.92,1.5,1137.88,1.5C1160.61,1.5,1179.21,20.8,1179.21,44.22Zm-65,0c0,13.47,10.6,24.27,23.66,24.27,12.84,0,23.43-10.8,23.43-24.27s-10.6-24.15-23.43-24.15A23.91,23.91,0,0,0,1114.21,44.22Z"/><path class="cls-3" d="M1252.06,49.81c0,22.21-10.48,37.14-32.14,37.14-17.9,0-32.14-14.93-32.14-36.29h19.31c0,11.77,4.94,17.84,12.84,17.84s12.72-6.07,12.72-18.69V3h19.43Z"/><path class="cls-3" d="M1329.06,3V21.4h-42V35.6h35.09V52.84H1287V67h42V85.49h-61.35V3Z"/><path class="cls-3" d="M1418.65,65.46a42.68,42.68,0,0,1-37.44,21.48c-25.08,0-43.33-18.94-43.33-43.33,0-22.94,18.25-42.11,43.33-42.11,17.07,0,30.49,8.25,37.68,20.63L1402.51,32c-3.76-7.53-11.19-12.51-21.31-12.51-14,0-23.79,10.56-23.79,24.15,0,13.11,9.77,24.64,23.79,24.64a23.17,23.17,0,0,0,21.08-12.5Z"/><path class="cls-3" d="M1503.17,21.4h-28.38V85.49h-19.55V21.4h-28.38V3h76.3Z"/></svg>