<svg xmlns="http://www.w3.org/2000/svg" viewBox="0 0 2828.34 247.71"><defs><style>.cls-1{fill:#386abc;}.cls-2{fill:#1b3596;}.cls-3{fill:#6ab7f0;}.cls-4,.cls-5{fill:#14186e;}.cls-5{fill-rule:evenodd;}</style></defs><title>gmp_logo_balloon</title><g id="GMP_Horizontal" data-name="GMP Horizontal"><path class="cls-1" d="M78.33,10c26.46,8.43,59.65,35.27,72.26,71-17.6-8.13-22.87-9.8-45.37-16.69C103.1,57.25,92.3,23,78.33,10Z"/><path class="cls-2" d="M78.33,10C68.75,34.91,67,58.43,69.75,103.37c11.32-12.57,35.47-39,35.47-39S95.72,26.71,78.33,10Z"/><path class="cls-2" d="M78.33,10c36.43,15.93,56,34.27,72.26,71,3-21,3.64-25.93.63-43.93C131.66,19.8,112.23,8.68,78.33,10Z"/><path class="cls-3" d="M105.22,64.36C78.76,91.93,77.8,94.41,52.67,122.09c44.28-12.5,70.37-24.46,97.92-41C150.06,77.26,110.58,63.6,105.22,64.36Z"/><path class="cls-1" d="M78.33,10c38.49-1.32,57.19,14.82,72.9,27.1A35.28,35.28,0,0,1,163,39.2C149.2,14.71,115.81.76,78.33,10Z"/><path class="cls-1" d="M78.33,10c-5.79,16.82-12.14,33.77-8.58,93.35C53.6,85.65,49,81.17,37,66,46.2,42.44,56.1,25.74,78.33,10Z"/><path class="cls-2" d="M78.33,10C56.74,26.57,47.8,39,37,66,27,70.13,18.75,74.41,6.59,83.77,17.42,48.31,39.26,22.7,78.33,10Z"/><path class="cls-1" d="M78.33,10C46.11,20.63,19.23,43.92,6.59,83.77,4.39,74.69,4,73.58,2.47,68.34,8.63,50.95,15.71,15.72,78.33,10Z"/><path class="cls-2" d="M78.33,10C69.54,6.14,60.64,6.23,54.09,7.15,44.6,11.49,30.46,19.2,19,35,43.37,15.89,65.58,11.62,78.33,10Z"/><path class="cls-1" d="M78.33,10C71.48,7.74,65.82,5.87,54.09,7.15c8.52-3.47,11-4,16.28-5.08C74.72,4.25,75.39,5.31,78.33,10Z"/><path class="cls-2" d="M78.33,10c-2.46-3.81-3.15-5-8-8C75.79.67,79.69.41,87.66,0,82.19,3.56,81.53,4.14,78.33,10Z"/><path class="cls-3" d="M69.75,103.37C50.41,82.13,47.2,78.06,37,66,22.19,72.05,5.89,77.15.1,95.5,15.69,104.16,42.46,104.37,69.75,103.37Z"/><path class="cls-4" d="M.1,95.5c10,24.7,21.38,31,40.55,40.47,10.58-12.09,20-23.17,29.1-32.6C47.79,104.18,13.24,103.36.1,95.5Z"/><path class="cls-4" d="M2.48,68.34S-.56,84.41.09,95.42a56,56,0,0,1,6.68-12C6.36,80.46,2.48,68.34,2.48,68.34Z"/><path class="cls-3" d="M.15,95.56c.27,8.21,6.61,30.83,10.9,36.67,3,4.06,16.58,5.14,29.59,3.75C24.77,127.44,11.28,123.22.15,95.56Z"/><path class="cls-4" d="M10.89,131.92A83,83,0,0,0,29.1,154.79,91.43,91.43,0,0,1,40.65,136C30.41,136.31,21.19,137,10.89,131.92Z"/><path class="cls-3" d="M52.67,122.09c-9.25,10.51-11.87,12.67-19.87,25.41,30.32,9.54,71.63.63,97.75-19.51C94.28,129.26,74.41,127.06,52.67,122.09Z"/><path class="cls-4" d="M52.67,122.09c31.65-8.33,77.45-28,97.57-41.81-3.52,20.16-10.45,36.16-19.69,47.71C102.93,129.76,80.28,127.87,52.67,122.09Z"/><path class="cls-4" d="M32.79,147.5C44,160,61,168.76,77.16,171c24.52-6.23,46.24-30.52,53.38-43C94.18,153.49,55,154.64,32.79,147.5Z"/><path class="cls-2" d="M29.1,154.79c1.51-3.06,2.29-4.62,3.69-7.29,4,6.75,10.72,14.85,18.61,22.19A79.65,79.65,0,0,1,29.1,154.79Z"/><path class="cls-1" d="M32.79,147.5c5,8.85,10.52,14.55,18.61,22.19,4,2.34,18.74,8.42,36,8.8-4.53-2.45-7.75-4.67-10.23-7.48C54.69,167,40.24,155.71,32.79,147.5Z"/><path class="cls-2" d="M114.45,148c-9.5,9.19-23.62,18.61-37.29,23,3.3,4.28,4.92,4.66,10.23,7.48a131.75,131.75,0,0,0,25.83-3.63C115.19,164.9,114.67,158.61,114.45,148Z"/><path class="cls-1" d="M113.23,174.86c1.39-10.71,1.45-15.46,1.22-26.85,10.72,5.41,23.08,7.2,34.79,7.07C137.91,164.54,128.5,170.35,113.23,174.86Z"/><path class="cls-4" d="M114.45,148c20.4-2.87,49.53-17.42,62.77-46.87-2,19.23-10.48,36.75-28,54C140.46,155.59,123.53,153.62,114.45,148Z"/><path class="cls-3" d="M114.45,148a153.27,153.27,0,0,0,28.38-42.42c15.58-1.81,29.2-4.89,35.34-15.15,0,3.76-.62,6.91-1,10.7C166.87,126,140,144.74,114.45,148Z"/><path class="cls-4" d="M174.16,62.18c3.56,11.18,3.77,17.9,4,28.43C176.47,99.26,149,107.2,142.7,105.7,160.69,90.68,164.61,81,174.16,62.18Z"/><path class="cls-3" d="M142.83,105.6c9.75-24.91,10-41.75,8.39-68.47,5,.32,8.89.46,11.76,2.08,6.74,9.33,8.49,15.83,11.17,23C169.89,70.67,163.22,90.24,142.83,105.6Z"/><path class="cls-2" d="M78.33,10c3.34-4.08,22.61-10.08,29.1-8.11,7,1.16,29.67,9.91,38.92,19.06C122.87,5.81,95.87,6.05,78.33,10Z"/><path class="cls-1" d="M78.33,10A19.59,19.59,0,0,1,87.19.07S100.89-.3,106.64,1.7C97.88,1.81,84.81,5.69,78.33,10Z"/><path class="cls-5" d="M95,245,85.56,218.3,44.87,166.41l3,1.53,36.52,46.29c.94-1.92,10.37-5.08,22.26-7.13L102.08,177l2.33-.35,4.11,30.11c10.9-1.75,19.89-2.26,22.4-.83l21.85-54.55,2.84-3.13L131.8,209.57s2.75,28.53,2.77,28.69c.46,2.76-10.33,6.91-20.43,8.59S95.7,247.69,95,245Z"/><path class="cls-1" d="M363.32,85.65,333,101.28c-7.26-9.33-18.57-14.54-35.21-14.54-25.4,0-43.11,18-43.11,42.55,0,23.45,18.14,43.64,43.53,43.64,15.57,0,28-5,35.64-12.38V146.22H289.7V118.86h75.11v54.71c-1.06,2.17-23.9,32.56-66.37,32.56-48,0-79-36.69-79-76.42,0-41,33.08-76.42,78.75-76.42C326.18,53.3,348.81,66.11,363.32,85.65Z"/><path class="cls-1" d="M426.23,170.53h76.19v33H391.23V55.9h35Z"/><path class="cls-1" d="M660.3,129.72c0,42.12-33.72,76.42-74.9,76.42-41.62,0-74.91-34.3-74.91-76.42,0-41.9,33.29-76.42,74.91-76.42C626.59,53.3,660.3,87.82,660.3,129.72Zm-117.8,0a43.09,43.09,0,0,0,42.9,43.42c23.26,0,42.47-19.32,42.47-43.42,0-23.88-19.2-43.2-42.47-43.2A43,43,0,0,0,542.5,129.72Z"/><path class="cls-1" d="M809.64,160.54c0,24.1-15.15,43-54.84,43H683.31V55.9h63c42,0,55.27,16.94,55.27,40.6,0,15.19-10.45,25.83-13.66,28.22C802,131.89,809.64,144.7,809.64,160.54Zm-41.41-59.48c0-10-6.4-14.76-19.85-14.76H718.3v30.83h30.09C763.55,117.12,768.24,112.57,768.24,101.06Zm-17.5,43.2H718.3v28.66h32.44q21.14,0,21.13-14.33C771.87,147.74,764.62,144.26,750.74,144.26Z"/><path class="cls-1" d="M929.53,180.52h-70l-9.61,23H812.8L874.9,55.9H914l62.31,147.63H938.93Zm-12.17-29.09L894.75,96.28l-23,55.15Z"/><path class="cls-1" d="M1034.91,170.53h76.19v33H999.91V55.9h35Z"/><path class="cls-4" d="M1329.82,204h-36V128.43L1258.26,204h-39.93l-35.56-75.58V204H1147V55.9h39.71l51.71,108.68L1289.89,55.9h39.93Z"/><path class="cls-4" d="M1473.41,180.92h-71.56L1392,204h-38l63.48-148.1h39.93L1521.19,204H1483ZM1461,151.73l-23.13-55.32-23.56,55.32Z"/><path class="cls-4" d="M1649.73,89h-52.58V204h-36.21V89h-52.58V55.9h141.37Z"/><path class="cls-4" d="M1811.2,204h-36v-57.5H1710V204h-35.78V55.9H1710v57.5h65.23V55.9h36Z"/><path class="cls-3" d="M1965.55,113.62c0,28.23-17.37,55.62-52.93,55.62h-30.25v32.44h-33.72V58.43h64.17C1948.38,58.43,1965.55,85.81,1965.55,113.62Zm-83.18-23.17v47h26.57c13.49,0,22.68-8.21,22.68-23.81,0-15.38-9.2-23-22.68-23.17Z"/><path class="cls-3" d="M2107.94,112.15c0,20.64-9.81,38.13-24.73,46.34l28.61,43.18h-41.69l-20.84-35.6h-24.53v35.6h-33.51V58.43h67.24C2086.69,58.43,2107.94,81,2107.94,112.15Zm-83.18-21.7V134h28.82c11.45,0,20.65-9.89,20.65-21.9,0-11.8-9.2-21.7-20.44-21.7Z"/><path class="cls-3" d="M2266.09,130c0,40.87-32.29,74.16-71.73,74.16-39.85,0-71.73-33.29-71.73-74.16,0-40.65,31.88-74.15,71.73-74.15C2233.8,55.9,2266.09,89.4,2266.09,130Zm-112.8,0c0,23.39,18.39,42.13,41.07,42.13,22.28,0,40.67-18.74,40.67-42.13,0-23.17-18.39-41.92-40.67-41.92C2171.68,88.13,2153.28,106.88,2153.28,130Z"/><path class="cls-3" d="M2392.53,139.74c0,38.55-18.19,64.47-55.79,64.47-31.06,0-55.79-25.92-55.79-63h33.51c0,20.43,8.58,31,22.28,31,13.89,0,22.07-10.53,22.07-32.44V58.43h33.72Z"/><path class="cls-3" d="M2526.16,58.43v32h-73v24.65h60.91V145H2453.2v24.65h73v32H2419.68V58.43Z"/><path class="cls-3" d="M2681.65,166.92a74.08,74.08,0,0,1-65,37.29c-43.53,0-75.21-32.87-75.21-75.21,0-39.81,31.68-73.09,75.21-73.09,29.63,0,52.93,14.32,65.4,35.81l-28.41,17.06c-6.53-13.06-19.41-21.7-37-21.7-24.32,0-41.29,18.33-41.29,41.92,0,22.75,17,42.76,41.29,42.76,17.17,0,29.84-9.05,36.58-21.69Z"/><path class="cls-3" d="M2828.34,90.44h-49.25V201.67h-33.92V90.44h-49.26v-32h132.43Z"/></g></svg>