<svg id="Layer_1" data-name="Layer 1" xmlns="http://www.w3.org/2000/svg" viewBox="0 0 533.11 122.04"><defs><style>.cls-1{fill:#fff;}</style></defs><title>jrmf-logo</title><path class="cls-1" d="M154.09,34.63H157V54.38a19.39,19.39,0,0,1-.71,6.34A5.91,5.91,0,0,1,154,63.56a7.23,7.23,0,0,1-4,1.06,9.35,9.35,0,0,1-3.49-.69,14.81,14.81,0,0,1-3.81-2.42l1.55-2.33A22.88,22.88,0,0,0,148,61.47a4.83,4.83,0,0,0,2,.44,3.76,3.76,0,0,0,2.28-.76,4,4,0,0,0,1.43-2,18.62,18.62,0,0,0,.41-4.85Z"/><path class="cls-1" d="M163.32,42.25h2.78v10.1a21.56,21.56,0,0,0,.4,5.09,5.68,5.68,0,0,0,2.28,3.14,6.92,6.92,0,0,0,4,1.15,6.78,6.78,0,0,0,4-1.12,5.75,5.75,0,0,0,2.24-3,20.86,20.86,0,0,0,.42-5.31V42.25h2.84V52.87a16.8,16.8,0,0,1-1,6.74,8,8,0,0,1-3.14,3.55,9.93,9.93,0,0,1-5.26,1.28,10,10,0,0,1-5.28-1.28,7.91,7.91,0,0,1-3.16-3.58,17.49,17.49,0,0,1-1-6.91Z"/><path class="cls-1" d="M188,33.9h2.78v30H188Z"/><path class="cls-1" d="M197.57,33.34a2.3,2.3,0,0,1,0,4.59,2.3,2.3,0,0,1-2.28-2.29A2.23,2.23,0,0,1,196,34,2.19,2.19,0,0,1,197.57,33.34Zm-1.38,8.91H199V63.89h-2.78Z"/><path class="cls-1" d="M226.32,42.25V63.89h-2.75V60.17a11.93,11.93,0,0,1-3.93,3.2A11,11,0,0,1,207,61.12,11.17,11.17,0,0,1,203.78,53a11,11,0,0,1,3.28-8,10.7,10.7,0,0,1,7.9-3.32,10.21,10.21,0,0,1,4.82,1.13,11,11,0,0,1,3.79,3.4v-4Zm-11.13,2.13a8.4,8.4,0,0,0-7.42,4.35,8.77,8.77,0,0,0,0,8.74,8.54,8.54,0,0,0,3.15,3.25,8.23,8.23,0,0,0,4.24,1.16,8.7,8.7,0,0,0,4.33-1.15,8.06,8.06,0,0,0,3.15-3.12,8.9,8.9,0,0,0,1.1-4.43,8.61,8.61,0,0,0-2.47-6.28A8.19,8.19,0,0,0,215.19,44.38Z"/><path class="cls-1" d="M244.48,34.63h5.83a35.33,35.33,0,0,1,6.6.4,7.54,7.54,0,0,1,4.24,2.56,7.3,7.3,0,0,1,1.63,4.83,7.81,7.81,0,0,1-1.12,4.2,7,7,0,0,1-3.21,2.74,14.76,14.76,0,0,1-5.77.95L263.2,63.89h-3.62L249.06,50.31h-1.65V63.89h-2.92Zm2.92,2.86v9.95l5,0a12.53,12.53,0,0,0,4.33-.56A4.51,4.51,0,0,0,259,45.14a5,5,0,0,0,.79-2.74,4.74,4.74,0,0,0-.8-2.68A4.44,4.44,0,0,0,256.87,38a12.72,12.72,0,0,0-4.3-.52Z"/><path class="cls-1" d="M276.39,41.69a10.72,10.72,0,0,1,8.29,3.62,11.62,11.62,0,0,1-.17,15.74,11.44,11.44,0,0,1-16.26,0,11.59,11.59,0,0,1-.17-15.72A10.71,10.71,0,0,1,276.39,41.69Zm0,2.73a8,8,0,0,0-6,2.57,8.58,8.58,0,0,0-2.5,6.21,8.8,8.8,0,0,0,1.14,4.38,8.06,8.06,0,0,0,3.07,3.13,8.74,8.74,0,0,0,8.5,0,8.06,8.06,0,0,0,3.07-3.13,8.8,8.8,0,0,0,1.14-4.38A8.56,8.56,0,0,0,282.34,47,8,8,0,0,0,276.38,44.42Z"/><path class="cls-1" d="M291.37,63.89v-30h2.78V46a11.75,11.75,0,0,1,3.91-3.21A11,11,0,0,1,310.66,45a11.15,11.15,0,0,1,3.25,8.09,11,11,0,0,1-3.28,8,10.68,10.68,0,0,1-7.89,3.32A10.09,10.09,0,0,1,298,63.32a11.18,11.18,0,0,1-3.8-3.4v4Zm11.14-2.13a8.38,8.38,0,0,0,7.41-4.36,8.83,8.83,0,0,0,0-8.77,8.53,8.53,0,0,0-3.15-3.25,8.17,8.17,0,0,0-4.22-1.16,8.67,8.67,0,0,0-4.34,1.16,8.1,8.1,0,0,0-3.16,3.13A8.93,8.93,0,0,0,294,53a8.63,8.63,0,0,0,2.47,6.29A8.17,8.17,0,0,0,302.51,61.76Z"/><path class="cls-1" d="M319.94,33.34a2.3,2.3,0,0,1,0,4.59,2.3,2.3,0,0,1-2.28-2.29,2.23,2.23,0,0,1,.67-1.63A2.19,2.19,0,0,1,319.94,33.34Zm-1.38,8.91h2.78V63.89h-2.78Z"/><path class="cls-1" d="M327.14,42.25h2.78v3.88a11.64,11.64,0,0,1,3.7-3.33,9.09,9.09,0,0,1,4.42-1.1,7.67,7.67,0,0,1,4.31,1.23,7.35,7.35,0,0,1,2.77,3.32,17.57,17.57,0,0,1,.9,6.5V63.89h-2.78V53.57a25.43,25.43,0,0,0-.31-5,5.48,5.48,0,0,0-1.86-3.23,5.61,5.61,0,0,0-3.58-1.08A6.87,6.87,0,0,0,333,45.93a7.83,7.83,0,0,0-2.64,4.14,28.75,28.75,0,0,0-.4,5.89v7.94h-2.78Z"/><path class="cls-1" d="M362,44.62l-1.79,1.85a6.44,6.44,0,0,0-4.37-2.17,3.3,3.3,0,0,0-2.32.9,2.76,2.76,0,0,0-1,2.09,3.09,3.09,0,0,0,.8,2,11.2,11.2,0,0,0,3.35,2.29,12.51,12.51,0,0,1,4.23,3.1,5.65,5.65,0,0,1,1.1,3.4,6.1,6.1,0,0,1-1.87,4.52,6.39,6.39,0,0,1-4.68,1.85,8.18,8.18,0,0,1-3.58-.82,7.76,7.76,0,0,1-2.82-2.25l1.75-2a6.09,6.09,0,0,0,4.53,2.41,4.08,4.08,0,0,0,2.85-1.07,3.32,3.32,0,0,0,1.18-2.53,3.24,3.24,0,0,0-.78-2.13,12.51,12.51,0,0,0-3.51-2.31,11.24,11.24,0,0,1-4-3,5.62,5.62,0,0,1-1.06-3.36,5.47,5.47,0,0,1,1.68-4.1A5.87,5.87,0,0,1,356,41.69Q359,41.69,362,44.62Z"/><path class="cls-1" d="M375.59,41.69a10.72,10.72,0,0,1,8.29,3.62,11.62,11.62,0,0,1-.17,15.74,11.44,11.44,0,0,1-16.26,0,11.59,11.59,0,0,1-.17-15.72A10.71,10.71,0,0,1,375.59,41.69Zm0,2.73a8,8,0,0,0-6,2.57,8.58,8.58,0,0,0-2.5,6.21,8.8,8.8,0,0,0,1.14,4.38,8.06,8.06,0,0,0,3.07,3.13,8.74,8.74,0,0,0,8.5,0,8.06,8.06,0,0,0,3.07-3.13A8.8,8.8,0,0,0,384,53.19,8.56,8.56,0,0,0,381.54,47,8,8,0,0,0,375.58,44.42Z"/><path class="cls-1" d="M390.39,42.25h2.78v3.88a11.64,11.64,0,0,1,3.7-3.33,9.09,9.09,0,0,1,4.42-1.1,7.67,7.67,0,0,1,4.31,1.23,7.35,7.35,0,0,1,2.77,3.32,17.57,17.57,0,0,1,.9,6.5V63.89h-2.78V53.57a25.43,25.43,0,0,0-.31-5,5.48,5.48,0,0,0-1.86-3.23,5.61,5.61,0,0,0-3.58-1.08,6.87,6.87,0,0,0-4.53,1.67,7.83,7.83,0,0,0-2.64,4.14,28.75,28.75,0,0,0-.4,5.89v7.94h-2.78Z"/><path class="cls-1" d="M143.17,106l4.19-29.26h.48l11.9,24,11.78-24H172L176.19,106h-2.87l-2.89-20.93L160.09,106h-.75L148.87,84.9,146,106Z"/><path class="cls-1" d="M201.42,84.35V106h-2.75v-3.72a11.93,11.93,0,0,1-3.93,3.2,11,11,0,0,1-12.61-2.26,11.17,11.17,0,0,1-3.25-8.11,11,11,0,0,1,3.28-8,10.7,10.7,0,0,1,7.9-3.32,10.21,10.21,0,0,1,4.82,1.13,11,11,0,0,1,3.79,3.4v-4Zm-11.13,2.13a8.4,8.4,0,0,0-7.42,4.35,8.77,8.77,0,0,0,0,8.74,8.53,8.53,0,0,0,3.15,3.25,8.23,8.23,0,0,0,4.24,1.16,8.7,8.7,0,0,0,4.33-1.15,8.06,8.06,0,0,0,3.15-3.12,8.9,8.9,0,0,0,1.1-4.43A8.61,8.61,0,0,0,196.38,89,8.19,8.19,0,0,0,190.29,86.47Z"/><path class="cls-1" d="M208.48,76.31h2.78v8h4.42v2.41h-4.42V106h-2.78V86.75h-3.8V84.35h3.8Z"/><path class="cls-1" d="M219,76h2.78V88.22a11.83,11.83,0,0,1,3.72-3.33,9.05,9.05,0,0,1,4.4-1.1A7.68,7.68,0,0,1,234.25,85,7.36,7.36,0,0,1,237,88.33a17.55,17.55,0,0,1,.9,6.51V106h-2.78V95.66a26.4,26.4,0,0,0-.3-5A5.66,5.66,0,0,0,233,87.44a5.57,5.57,0,0,0-3.57-1.08A6.87,6.87,0,0,0,224.86,88a7.83,7.83,0,0,0-2.64,4.14,28.58,28.58,0,0,0-.4,5.89V106H219Z"/><path class="cls-1" d="M260.48,98.81l2.35,1.23a12.79,12.79,0,0,1-2.67,3.66,10.59,10.59,0,0,1-3.4,2.12,11.88,11.88,0,0,1-4.28.73,10.34,10.34,0,0,1-8.28-3.47,11.71,11.71,0,0,1-3-7.85,11.57,11.57,0,0,1,2.53-7.34,10.34,10.34,0,0,1,8.58-4.1,10.68,10.68,0,0,1,8.84,4.2,11.72,11.72,0,0,1,2.39,7.4H244.07a8.81,8.81,0,0,0,2.41,6.18,7.69,7.69,0,0,0,5.76,2.41,9.25,9.25,0,0,0,3.22-.57,8.46,8.46,0,0,0,2.66-1.53A13,13,0,0,0,260.48,98.81Zm0-5.83a9.23,9.23,0,0,0-1.62-3.56A7.69,7.69,0,0,0,256,87.27a8.63,8.63,0,0,0-3.68-.82,7.94,7.94,0,0,0-5.48,2A9.25,9.25,0,0,0,244.35,93Z"/><path class="cls-1" d="M267.09,84.35h2.79v3.74a10.77,10.77,0,0,1,3-3,8.47,8.47,0,0,1,4.44-1.27,7.39,7.39,0,0,1,3,.62A6.43,6.43,0,0,1,282.6,86,8.81,8.81,0,0,1,284.15,89a10.28,10.28,0,0,1,3.47-3.87,8.22,8.22,0,0,1,4.48-1.32,7,7,0,0,1,4,1.13,6.76,6.76,0,0,1,2.55,3.16,16.87,16.87,0,0,1,.83,6.09V106H296.6V94.17a15.45,15.45,0,0,0-.5-4.78,4.31,4.31,0,0,0-1.7-2.1,5.06,5.06,0,0,0-2.87-.8,6.23,6.23,0,0,0-3.7,1.19,6.87,6.87,0,0,0-2.45,3.18,20.17,20.17,0,0,0-.77,6.64V106h-2.78V94.91a19,19,0,0,0-.49-5.32,4.45,4.45,0,0,0-1.7-2.25,4.92,4.92,0,0,0-2.88-.85,6.22,6.22,0,0,0-3.61,1.16,6.89,6.89,0,0,0-2.49,3.13,16.89,16.89,0,0,0-.81,6V106h-2.79Z"/><path class="cls-1" d="M325.25,84.35V106h-2.75v-3.72a11.93,11.93,0,0,1-3.93,3.2A11,11,0,0,1,306,103.21a11.17,11.17,0,0,1-3.25-8.11,11,11,0,0,1,3.28-8,10.7,10.7,0,0,1,7.9-3.32,10.21,10.21,0,0,1,4.82,1.13,11,11,0,0,1,3.79,3.4v-4Zm-11.13,2.13a8.4,8.4,0,0,0-7.42,4.35,8.77,8.77,0,0,0,0,8.74,8.54,8.54,0,0,0,3.15,3.25A8.23,8.23,0,0,0,314.1,104a8.7,8.7,0,0,0,4.33-1.15,8.06,8.06,0,0,0,3.15-3.12,8.9,8.9,0,0,0,1.1-4.43A8.61,8.61,0,0,0,320.21,89,8.19,8.19,0,0,0,314.12,86.47Z"/><path class="cls-1" d="M333.13,76.31h2.78v8h4.42v2.41h-4.42V106h-2.78V86.75h-3.8V84.35h3.8Z"/><path class="cls-1" d="M345.47,75.43a2.3,2.3,0,0,1,0,4.59,2.3,2.3,0,0,1-2.28-2.29,2.23,2.23,0,0,1,.67-1.63A2.19,2.19,0,0,1,345.47,75.43Zm-1.38,8.91h2.78V106h-2.78Z"/><path class="cls-1" d="M372.85,88.84l-2.21,1.37a9.25,9.25,0,0,0-7.81-3.8A9,9,0,0,0,356.27,89a8.3,8.3,0,0,0-2.61,6.18,8.77,8.77,0,0,0,1.2,4.45,8.42,8.42,0,0,0,3.3,3.24,10,10,0,0,0,12.49-2.65l2.21,1.45a10.43,10.43,0,0,1-4.17,3.62,13.31,13.31,0,0,1-6,1.29,11.77,11.77,0,0,1-8.51-3.26,10.61,10.61,0,0,1-3.38-7.94,11.34,11.34,0,0,1,1.58-5.84,11.14,11.14,0,0,1,4.35-4.21,12.68,12.68,0,0,1,6.19-1.51,13.21,13.21,0,0,1,4.15.66,11.54,11.54,0,0,1,3.39,1.71A9.31,9.31,0,0,1,372.85,88.84Z"/><path class="cls-1" d="M387.45,86.71l-1.79,1.85a6.44,6.44,0,0,0-4.37-2.17,3.3,3.3,0,0,0-2.32.9,2.76,2.76,0,0,0-1,2.09,3.09,3.09,0,0,0,.8,2,11.2,11.2,0,0,0,3.35,2.29,12.51,12.51,0,0,1,4.23,3.1,5.65,5.65,0,0,1,1.1,3.4,6.11,6.11,0,0,1-1.87,4.52,6.39,6.39,0,0,1-4.68,1.85,8.18,8.18,0,0,1-3.58-.82,7.76,7.76,0,0,1-2.82-2.25l1.75-2a6.09,6.09,0,0,0,4.53,2.41,4.08,4.08,0,0,0,2.85-1.07,3.32,3.32,0,0,0,1.18-2.53,3.24,3.24,0,0,0-.78-2.13,12.51,12.51,0,0,0-3.51-2.31,11.24,11.24,0,0,1-4-3,5.62,5.62,0,0,1-1.06-3.36,5.47,5.47,0,0,1,1.68-4.1,5.86,5.86,0,0,1,4.25-1.63Q384.43,83.79,387.45,86.71Z"/><path class="cls-1" d="M404.12,76.73h14.66v2.86H407v9.17h11.74v2.86H407V106h-2.92Z"/><path class="cls-1" d="M440.82,98.81l2.35,1.23a12.8,12.8,0,0,1-2.67,3.66,10.59,10.59,0,0,1-3.4,2.12,11.88,11.88,0,0,1-4.28.73,10.34,10.34,0,0,1-8.28-3.47,11.71,11.71,0,0,1-3-7.85,11.57,11.57,0,0,1,2.53-7.34,10.34,10.34,0,0,1,8.58-4.1A10.68,10.68,0,0,1,441.5,88a11.72,11.72,0,0,1,2.39,7.4H424.41a8.81,8.81,0,0,0,2.41,6.18,7.69,7.69,0,0,0,5.76,2.41,9.25,9.25,0,0,0,3.22-.57,8.46,8.46,0,0,0,2.66-1.53A13,13,0,0,0,440.82,98.81Zm0-5.83a9.23,9.23,0,0,0-1.62-3.56,7.69,7.69,0,0,0-2.82-2.15,8.63,8.63,0,0,0-3.68-.82,7.94,7.94,0,0,0-5.48,2A9.25,9.25,0,0,0,424.69,93Z"/><path class="cls-1" d="M458.33,86.71l-1.79,1.85a6.44,6.44,0,0,0-4.37-2.17,3.3,3.3,0,0,0-2.32.9,2.76,2.76,0,0,0-1,2.09,3.09,3.09,0,0,0,.8,2A11.2,11.2,0,0,0,453,93.68a12.51,12.51,0,0,1,4.23,3.1,5.65,5.65,0,0,1,1.1,3.4,6.11,6.11,0,0,1-1.87,4.52,6.39,6.39,0,0,1-4.68,1.85,8.18,8.18,0,0,1-3.58-.82,7.76,7.76,0,0,1-2.82-2.25l1.75-2a6.09,6.09,0,0,0,4.53,2.41,4.08,4.08,0,0,0,2.85-1.07,3.32,3.32,0,0,0,1.18-2.53,3.24,3.24,0,0,0-.78-2.13,12.51,12.51,0,0,0-3.51-2.31,11.24,11.24,0,0,1-4-3,5.62,5.62,0,0,1-1.06-3.36,5.47,5.47,0,0,1,1.68-4.1,5.86,5.86,0,0,1,4.25-1.63Q455.3,83.79,458.33,86.71Z"/><path class="cls-1" d="M464.06,76.31h2.78v8h4.42v2.41h-4.42V106h-2.78V86.75h-3.8V84.35h3.8Z"/><path class="cls-1" d="M476.4,75.43a2.3,2.3,0,0,1,0,4.59,2.3,2.3,0,0,1-2.28-2.29,2.23,2.23,0,0,1,.67-1.63A2.19,2.19,0,0,1,476.4,75.43ZM475,84.35h2.78V106H475Z"/><path class="cls-1" d="M481.55,84.35h3l7.26,15.78L499,84.35h3L492,106h-.52Z"/><path class="cls-1" d="M524.47,84.35V106h-2.75v-3.72a11.93,11.93,0,0,1-3.93,3.2,11,11,0,0,1-12.61-2.26,11.17,11.17,0,0,1-3.25-8.11,11,11,0,0,1,3.28-8,10.7,10.7,0,0,1,7.9-3.32,10.21,10.21,0,0,1,4.82,1.13,11,11,0,0,1,3.79,3.4v-4Zm-11.13,2.13a8.4,8.4,0,0,0-7.42,4.35,8.77,8.77,0,0,0,0,8.74,8.54,8.54,0,0,0,3.15,3.25,8.23,8.23,0,0,0,4.24,1.16,8.7,8.7,0,0,0,4.33-1.15,8.06,8.06,0,0,0,3.15-3.12,8.9,8.9,0,0,0,1.1-4.43A8.61,8.61,0,0,0,519.43,89,8.19,8.19,0,0,0,513.35,86.47Z"/><path class="cls-1" d="M530.32,76h2.78v30h-2.78Z"/><path class="cls-1" d="M106.88,107.89c-6.52-17.59-13.4-30.65-20.43-38.83-5.85-6.8-11.84-10.25-17.81-10.25h0c-11.48,0-21.67,12.69-28.19,23.32a152.5,152.5,0,0,0-11.78,24l-4.07-1.49c.75-2,18.63-50.15,44-50.2h0c7.28,0,14.38,4,21.09,11.75a88.68,88.68,0,0,1,10.59,16,198.39,198.39,0,0,1,10.63,24.17Z"/><rect class="cls-1" x="24.47" y="2.56" width="4.34" height="118.63"/><rect class="cls-1" y="103.54" width="125.44" height="4.34"/><path class="cls-1" d="M123.35,107.92c-29.55,0-53.13-8.82-70.1-26.24C37.41,65.43,30.45,44.58,27.4,30A126.63,126.63,0,0,1,24.54,1.83L28.87,2a124.92,124.92,0,0,0,2.8,27.2c2.94,14,9.62,34,24.71,49.48C72.87,95.59,96.06,104,125.3,103.57l.06,4.34ZM28.87,2l-2.17-.08L28.87,2Z"/><path class="cls-1" d="M65.87,122a61,61,0,1,1,61-61A61.09,61.09,0,0,1,65.87,122Zm0-117.71A56.68,56.68,0,1,0,122.56,61,56.75,56.75,0,0,0,65.87,4.34Z"/></svg>