<svg id="Layer_1" data-name="Layer 1" xmlns="http://www.w3.org/2000/svg" viewBox="0 0 1531.68 298.08"><defs><style>.cls-1{fill:#fff;}</style></defs><title>math-plus-partner-logo</title><path class="cls-1" d="M194.8,296.58H175.45l-7.69-20h-35.2l-7.26,20H106.45l34.3-88h18.8Zm-32.74-34.83-12.14-32.68L138,261.75Zm216.09,2.46,17.22,5.45q-4,14.42-13.18,21.42t-23.39,7q-17.53,0-28.82-12t-11.29-32.76q0-22,11.36-34.15T359.89,207q16.14,0,26.24,9.55c4,3.75,7,9.16,9,16.21L377.54,237A18.17,18.17,0,0,0,359,222.23a20,20,0,0,0-15.89,7Q337,236.27,337,252q0,16.7,6,23.78a19.46,19.46,0,0,0,15.6,7.09,17.76,17.76,0,0,0,12.2-4.51c3.4-3,5.84-7.73,7.34-14.17m227,32.37H585.82l-7.69-20h-35.2l-7.26,20H516.82l34.29-88h18.8Zm-32.74-34.83L560.3,229.08l-11.89,32.68ZM730.9,208.54h32.49q11,0,16.75,1.68a29.22,29.22,0,0,1,13.26,8.12,38.41,38.41,0,0,1,8.43,14.25c1.91,5.64,2.87,12.56,2.87,20.83a57.9,57.9,0,0,1-2.7,18.74,38.53,38.53,0,0,1-9.43,15.54,31,31,0,0,1-12.48,7q-5.88,1.88-15.74,1.87H730.9Zm17.77,14.9v58.3h13.26a47.8,47.8,0,0,0,10.76-.84,16.41,16.41,0,0,0,7.18-3.65c1.91-1.72,3.44-4.57,4.65-8.51s1.8-9.33,1.8-16.13-.62-12-1.8-15.66a20.22,20.22,0,0,0-5-8.53,16.89,16.89,0,0,0-8.24-4.14c-2.48-.57-7.34-.84-14.59-.84Zm187.47,73.14v-88h65.27v14.9h-47.5V243h44.2v14.82h-44.2v24h49.18v14.84Zm198.15,0v-88h26.61l16,60.06,15.79-60.06h26.67v88h-16.5V227.28l-17.48,69.31h-17.12l-17.42-69.31v69.31Zm242.17,0V259.52l-32.25-51h20.85l20.72,34.83,20.3-34.83h20.48l-32.37,51.1v36.94Z"/><path class="cls-1" d="M821.81,0h99.52Q953.81,0,970,14c10.78,9.34,16.2,22.69,16.2,39.94q0,26.67-17.64,41.66t-53.86,15H881.95V75H821.81Zm60.14,110.63H821.81v65.29h60.14Zm0-35.64h14.66c11.55,0,19.62-1.8,24.31-5.45a17,17,0,0,0,7-14,18.55,18.55,0,0,0-6.09-14q-6-5.77-22.83-5.77h-17ZM1001.27,0h59.91V132.59h93.43v43.34H1001.27Zm286.11,0h59.77V104.9a81.23,81.23,0,0,1-5.37,29.45A63.25,63.25,0,0,1,1325,158.6a68,68,0,0,1-24,14.58c-11.64,3.89-25.58,5.86-41.91,5.86a282.5,282.5,0,0,1-30.86-1.8q-16.71-1.79-27.92-7.13a69.64,69.64,0,0,1-20.57-15.19q-9.34-9.83-12.77-20.28-5.55-16.77-5.55-29.74V0h59.77V107.4q0,14.44,8.75,22.49t24.41,8.11c10.28,0,18.41-2.66,24.27-8s8.75-12.86,8.75-22.61Zm71.53,118.78,56-3.18c1.2,8.25,3.68,14.53,7.4,18.88,6,7,14.72,10.47,26,10.47q12.57,0,19.42-5.35t6.78-12.44c0-4.47-2.13-8.49-6.47-12s-14.36-6.89-30.15-10q-38.7-7.91-55.19-21T1366,50.75q0-13.34,8.51-25.2t25.58-18.64Q1417.23.15,1447,.15q36.51,0,55.68,12.32t22.79,39.21L1470,54.61q-2.2-11.66-9.31-17c-4.7-3.5-11.22-5.27-19.51-5.27-6.87,0-12,1.29-15.47,3.95s-5.19,5.83-5.19,9.62c0,2.74,1.42,5.19,4.25,7.41s9.35,4.39,19.77,6.36q38.57,7.55,55.24,15.3c11.13,5.15,19.24,11.51,24.3,19.16a45.28,45.28,0,0,1,7.63,25.6,51.29,51.29,0,0,1-10.15,30.63q-10.11,14.07-28.33,21.29t-45.84,7.25q-48.54,0-67.26-17t-21.19-43.15"/><path class="cls-1" d="M0,.53H78.77l30.4,107L139.44.53h78.5V176.46H169V42.31L131.1,176.46H86.84L49,42.31V176.46H0ZM364.51,147.41H296.3l-9.39,29H225.74L298.55.53h65.28l72.86,175.93H374ZM352,109.36,330.54,46.12l-21.3,63.24ZM396.54.53h182V44H517.44V176.46H457.58V44h-61Zm195.79,0h59.87v75h65.46v35.64h60.14v65.29H717.65V111.16H652.19v65.29H592.33Zm125.32,75h60.14V.53H717.65Z"/></svg>