<svg id="Layer_1" data-name="Layer 1" xmlns="http://www.w3.org/2000/svg" viewBox="0 0 543.94 143.85"><defs><style>.cls-1{fill:#f1f2f2;}</style></defs><title>momath-logo-white</title><polygon class="cls-1" points="487.2 89.53 501.95 89.53 501.95 62.59 529.19 62.59 529.19 89.53 543.94 89.53 543.94 22.44 529.19 22.44 529.19 49 501.95 49 501.95 22.44 487.2 22.44 487.2 89.53"/><polygon class="cls-1" points="440.71 89.53 455.45 89.53 455.45 36.04 475.88 36.04 475.88 22.44 420.29 22.44 420.29 36.04 440.71 36.04 440.71 89.53"/><path class="cls-1" d="M352.22,89.53h15.06l6.12-15.05h28.37l6.14,15.05h15.42L394.58,22H381Zm26.45-28.08L387.6,39.7l8.91,21.76Z"/><polygon class="cls-1" points="274.77 89.53 289.23 89.53 289.23 46.02 307.93 74.39 308.31 74.39 327.2 45.73 327.2 89.53 341.85 89.53 341.85 22.44 325.96 22.44 308.31 50.81 290.67 22.44 274.77 22.44 274.77 89.53"/><path class="cls-1" d="M.57,89.53H15.06V46L33.75,74.39h.38L53,45.73v43.8H67.67V22.44H51.77L34.13,50.81,16.48,22.44H.57Zm115.8,1.15c20.73,0,35.76-15.61,35.76-34.69V55.8c0-19.09-14.85-34.5-35.57-34.5S80.81,36.91,80.81,56v.19c0,19.08,14.85,34.5,35.56,34.5m.19-13.6c-11.89,0-20.32-9.58-20.32-21.09V55.8c0-11.51,8.25-20.91,20.13-20.91s20.34,9.59,20.34,21.1v.19c0,11.51-8.26,20.9-20.15,20.9"/><path class="cls-1" d="M218.54,45.6l-10,28.28c-1.2,3.42-.21,6.8,1.53,9.91,1.21,2,3.3,5.48,5.31,6.74l.31-.9c-2.07-2.2-3.63-6.9-2.61-9.75.83-2.37.83-2.37,1.68-4.74l16.48,12.42c4.49,3.43,3.41,11.31,8.73,13.19,2.14.76,3.14,0,3.86-2,2-5.71-7.22-12.29-11-15.19L216.29,70.81l3.09-8.73,17.44,10.84a34.71,34.71,0,0,0,6.61,3.34c3.87,1.37,8,.82,9.52-3.34.78-2.2.52-4.41-2-5.31-5.65-2-6.71,3.14-11.43,1.47a14,14,0,0,1-2.34-1.19L221,57.5c1.51-4.3,1.51-4.3,3-8.58Z"/><path class="cls-1" d="M210.58,43.72l12.94,27.06c1.57,3.28,4.66,5,8.09,5.93,2.24.55,6.2,1.54,8.52,1l-.41-.87c-3-.08-7.45-2.3-8.75-5L228.8,67.3l20.44-2.88c5.6-.75,10.41,5.58,15.5,3.15,2-1,2.22-2.21,1.29-4.17-2.62-5.47-13.79-3.58-18.53-3l-20.68,2.7-4-8.35,20-4.67a34.8,34.8,0,0,0,7-2.3c3.71-1.78,6.27-5.12,4.37-9.11-1-2.11-2.76-3.48-5.19-2.31-5.4,2.59-2.51,7-7,9.12a14.49,14.49,0,0,1-2.5.81l-18.78,4.08c-2-4.11-2-4.11-3.93-8.22l-6.21,1.53"/><path class="cls-1" d="M203.61,48l28.28,10c3.44,1.2,6.81.22,9.92-1.53,2-1.2,5.47-3.29,6.74-5.31l-.9-.31c-2.19,2.06-6.89,3.63-9.74,2.62l-4.75-1.68,12.42-16.49c3.43-4.48,11.32-3.42,13.2-8.73.75-2.14,0-3.13-2-3.86-5.72-2-12.29,7.22-15.18,11L228.82,50.27l-8.74-3.08,10.83-17.44a34.06,34.06,0,0,0,3.34-6.61c1.37-3.88.83-8.06-3.34-9.52-2.2-.78-4.4-.52-5.3,2-2,5.65,3.14,6.7,1.47,11.43a13.84,13.84,0,0,1-1.19,2.34L215.5,45.58l-8.57-3c-1.65,2.74-1.65,2.74-3.32,5.48"/><path class="cls-1" d="M201.73,56l27.06-12.94c3.28-1.57,5-4.66,5.93-8.08.54-2.26,1.53-6.21,1-8.53l-.85.42c-.09,3-2.31,7.44-5,8.74l-4.54,2.17-2.87-20.44c-.75-5.6,5.58-10.42,3.15-15.5-1-2-2.21-2.22-4.17-1.28-5.47,2.62-3.59,13.79-3,18.53,1.35,10.34,1.35,10.34,2.69,20.69l-8.35,4c-2.34-10-2.34-10-4.67-20a33.92,33.92,0,0,0-2.3-7c-1.78-3.72-5.12-6.28-9.1-4.38-2.12,1-3.48,2.75-2.32,5.19,2.58,5.4,7,2.52,9.12,7a14.79,14.79,0,0,1,.81,2.49c2,9.39,2,9.39,4.09,18.78l-8.22,3.93L201.73,56"/><path class="cls-1" d="M206,63c5-14.14,5-14.14,10-28.28,1.2-3.43.21-6.81-1.53-9.91-1.21-2-3.29-5.47-5.31-6.74-.15.45-.15.45-.31.91,2.07,2.19,3.63,6.89,2.62,9.74-.83,2.37-.83,2.37-1.68,4.74L193.33,21c-4.49-3.43-3.42-11.32-8.73-13.19-2.14-.76-3.13,0-3.86,2-2,5.71,7.22,12.29,11,15.19l16.54,12.73-3.09,8.74L187.76,35.65a34.09,34.09,0,0,0-6.61-3.35c-3.88-1.37-8-.82-9.52,3.35-.79,2.2-.52,4.4,2,5.31,5.66,2,6.7-3.15,11.43-1.48a14.06,14.06,0,0,1,2.34,1.19l16.16,10.4c-1.51,4.29-1.51,4.29-3,8.58L206,63"/><path class="cls-1" d="M214,64.84,201.07,37.78c-1.57-3.28-4.67-5-8.08-5.93-2.25-.55-6.21-1.54-8.53-1,.2.44.2.44.42.86,3,.08,7.44,2.31,8.74,5l2.17,4.54-20.44,2.87c-5.61.75-10.43-5.58-15.51-3.15-2,1-2.22,2.21-1.29,4.17,2.61,5.47,13.8,3.58,18.53,3l20.68-2.7,4,8.36-20,4.67a34.16,34.16,0,0,0-7,2.31c-3.71,1.77-6.28,5.11-4.38,9.1,1,2.11,2.76,3.48,5.19,2.31,5.4-2.58,2.52-7,7-9.12a14.07,14.07,0,0,1,2.48-.8l18.79-4.08c2,4.11,2,4.11,3.93,8.21L214,64.84"/><path class="cls-1" d="M221,60.53l-28.28-10c-3.43-1.21-6.8-.23-9.91,1.53-2,1.2-5.48,3.3-6.75,5.31l.9.31c2.19-2.06,6.89-3.63,9.74-2.62l4.75,1.67C185.21,65,185.21,65,179,73.24c-3.43,4.49-11.32,3.42-13.2,8.73-.75,2.13,0,3.13,2,3.86,5.71,2,12.29-7.23,15.18-11l12.73-16.53,8.74,3.09L193.66,78.81a34.13,34.13,0,0,0-3.34,6.61c-1.37,3.88-.82,8,3.34,9.52,2.2.78,4.4.52,5.3-2,2-5.65-3.14-6.7-1.47-11.43a14.36,14.36,0,0,1,1.19-2.34L209.08,63l8.57,3L221,60.53"/><path class="cls-1" d="M222.85,52.56,195.79,65.5c-3.28,1.57-5,4.66-5.93,8.09-.55,2.25-1.53,6.2-1,8.52l.86-.4c.08-3,2.3-7.45,5-8.75l4.54-2.17C200.71,81,200.71,81,202.15,91.23c.75,5.59-5.59,10.42-3.15,15.5,1,2,2.21,2.22,4.17,1.29,5.47-2.62,3.58-13.8,3-18.53-1.35-10.34-1.35-10.34-2.7-20.69l8.36-4c2.34,10,2.34,10,4.67,20a34.83,34.83,0,0,0,2.31,7c1.78,3.72,5.12,6.29,9.11,4.38,2.11-1,3.47-2.75,2.31-5.19-2.58-5.41-7-2.52-9.12-7a14.47,14.47,0,0,1-.81-2.5l-4.08-18.78,8.21-3.92-1.53-6.22"/><path class="cls-1" d="M266,63.4c-2.62-5.47-13.79-3.58-18.53-3l-20.68,2.7-4-8.33-8.37-3c3,6.27,4.23,8.83,9.05,18.92,1.57,3.28,4.66,5,8.09,5.93,2.24.55,6.2,1.54,8.52,1l-.41-.87c-3-.08-7.45-2.3-8.75-5L228.8,67.3l20.44-2.88c5.6-.75,10.41,5.58,15.5,3.15C266.79,66.6,267,65.36,266,63.4Z"/><path class="cls-1" d="M256.74,22.73c-5.72-2-12.29,7.22-15.18,11L228.82,50.27l-8.71-3.06-8,3.82,19.77,7c3.44,1.2,6.81.22,9.92-1.53,2-1.2,5.47-3.29,6.74-5.31l-.9-.31c-2.19,2.06-6.89,3.63-9.74,2.62l-4.75-1.68,12.42-16.49c3.43-4.48,11.32-3.42,13.2-8.73C259.53,24.45,258.79,23.46,256.74,22.73Z"/><path class="cls-1" d="M232.82,83.53,216.29,70.81l3.08-8.7-3.83-8c-2.31,6.55-3.25,9.23-7,19.78-1.2,3.42-.21,6.8,1.53,9.91,1.21,2,3.3,5.48,5.31,6.74l.31-.9c-2.07-2.2-3.63-6.9-2.61-9.75.83-2.37.83-2.37,1.68-4.74l16.48,12.42c4.49,3.43,3.41,11.31,8.73,13.19,2.14.76,3.14,0,3.86-2C245.86,93,236.62,86.44,232.82,83.53Z"/><path class="cls-1" d="M14,124.48h2.09v19H14.39L2.09,127.91v15.61H0v-19H2l12,15.26Z"/><path class="cls-1" d="M39.36,143.53H37.05l-2.23-5H24.46l-2.26,5H20l8.68-19.18h2Zm-9.71-16.67-4.35,9.71H34Z"/><path class="cls-1" d="M48,143.53H45.81V126.47H39.42v-2h15v2H48Z"/><path class="cls-1" d="M60.66,124.48v19H58.51v-19Z"/><path class="cls-1" d="M75.26,143.85A9.85,9.85,0,1,1,85,134,9.57,9.57,0,0,1,75.26,143.85Zm0-17.71c-4.35,0-7.45,3.48-7.45,7.83a7.58,7.58,0,0,0,7.51,7.89c4.35,0,7.46-3.48,7.46-7.84A7.58,7.58,0,0,0,75.26,126.14Z"/><path class="cls-1" d="M103.9,124.48H106v19h-1.72L92,127.91v15.61h-2.1v-19h2l12,15.26Z"/><path class="cls-1" d="M129.26,143.53h-2.31l-2.23-5H114.35l-2.26,5h-2.2l8.68-19.18h2Zm-9.71-16.67-4.35,9.71h8.68Z"/><path class="cls-1" d="M133.16,124.48h2.15v17.06H146v2H133.16Z"/><path class="cls-1" d="M167.31,138.3h-.11l-6.94-10.17v15.4h-2.09v-19h2.18l6.94,10.39,6.94-10.39h2.17v19h-2.15V128.1Z"/><path class="cls-1" d="M197.9,135.39c0,5.54-3.18,8.43-7.94,8.43s-7.91-2.89-7.91-8.27V124.48h2.15v10.94c0,4.11,2.18,6.42,5.82,6.42s5.74-2.12,5.74-6.28V124.48h2.15Z"/><path class="cls-1" d="M210,133c4.24.93,6.2,2.48,6.2,5.41,0,3.29-2.72,5.41-6.5,5.41a11.15,11.15,0,0,1-7.78-3l1.33-1.58a9.07,9.07,0,0,0,6.53,2.7c2.56,0,4.24-1.33,4.24-3.26s-1-2.8-5-3.65c-4.38-1-6.39-2.37-6.39-5.52s2.64-5.22,6.26-5.22a10,10,0,0,1,6.69,2.34l-1.25,1.66a8.36,8.36,0,0,0-5.5-2.07c-2.47,0-4.05,1.36-4.05,3.1S205.8,132.07,210,133Z"/><path class="cls-1" d="M234.64,126.44H223v6.5h10.39v2H223v6.66h11.75v2h-13.9v-19h13.77Z"/><path class="cls-1" d="M254.6,135.39c0,5.54-3.18,8.43-7.94,8.43s-7.92-2.89-7.92-8.27V124.48h2.15v10.94c0,4.11,2.17,6.42,5.82,6.42s5.74-2.12,5.74-6.28V124.48h2.15Z"/><path class="cls-1" d="M269.37,138.3h-.11l-6.94-10.17v15.4h-2.09v-19h2.18l6.93,10.39,6.94-10.39h2.17v19H276.3V128.1Z"/><path class="cls-1" d="M300.85,143.85a9.85,9.85,0,1,1,9.74-9.88A9.57,9.57,0,0,1,300.85,143.85Zm0-17.71c-4.35,0-7.45,3.48-7.45,7.83a7.58,7.58,0,0,0,7.51,7.89c4.35,0,7.46-3.48,7.46-7.84A7.58,7.58,0,0,0,300.85,126.14Z"/><path class="cls-1" d="M329.17,126.47H317.63v6.8h10.31v2H317.63v8.3h-2.15v-19h13.68Z"/><path class="cls-1" d="M350.63,138.3h-.11l-6.93-10.17v15.4h-2.1v-19h2.18l6.94,10.39,6.94-10.39h2.18v19h-2.15V128.1Z"/><path class="cls-1" d="M383,143.53h-2.31l-2.23-5H368.09l-2.26,5h-2.21l8.68-19.18h2Zm-9.71-16.67-4.35,9.71h8.67Z"/><path class="cls-1" d="M391.61,143.53h-2.17V126.47H383v-2h15v2h-6.4Z"/><path class="cls-1" d="M404.19,135v8.57H402v-19h2.15v8.46h11v-8.46h2.15v19h-2.15V135Z"/><path class="cls-1" d="M436.94,126.44H425.32v6.5h10.4v2h-10.4v6.66h11.75v2h-13.9v-19h13.77Z"/><path class="cls-1" d="M450.54,138.3h-.11l-6.94-10.17v15.4h-2.1v-19h2.18l6.94,10.39,6.94-10.39h2.17v19h-2.15V128.1Z"/><path class="cls-1" d="M482.9,143.53h-2.31l-2.23-5H468l-2.26,5h-2.21l8.68-19.18h2Zm-9.71-16.67-4.35,9.71h8.68Z"/><path class="cls-1" d="M491.52,143.53h-2.17V126.47H483v-2h15v2h-6.39Z"/><path class="cls-1" d="M504.19,124.48v19H502v-19Z"/><path class="cls-1" d="M518.72,143.85a9.85,9.85,0,0,1,.08-19.7,9.92,9.92,0,0,1,7.43,3l-1.47,1.58a8.27,8.27,0,0,0-6-2.61c-4.22,0-7.37,3.4-7.37,7.83s3.18,7.89,7.37,7.89a8.27,8.27,0,0,0,6.15-2.75l1.41,1.39A9.92,9.92,0,0,1,518.72,143.85Z"/><path class="cls-1" d="M537.67,133c4.24.93,6.2,2.48,6.2,5.41,0,3.29-2.72,5.41-6.5,5.41a11.15,11.15,0,0,1-7.78-3l1.33-1.58a9.06,9.06,0,0,0,6.53,2.7c2.56,0,4.24-1.33,4.24-3.26s-.95-2.8-5-3.65c-4.38-1-6.39-2.37-6.39-5.52s2.64-5.22,6.26-5.22a10,10,0,0,1,6.69,2.34L542,128.21a8.35,8.35,0,0,0-5.5-2.07c-2.48,0-4.05,1.36-4.05,3.1S533.48,132.07,537.67,133Z"/></svg>
