<svg id="Layer_1" data-name="Layer 1" xmlns="http://www.w3.org/2000/svg" viewBox="0 0 550.78 151.56"><defs><style>.cls-1{fill:#fff;}</style></defs><title>momath-partner-logo</title><polygon class="cls-1" points="490.96 93.75 505.71 93.75 505.71 66.81 532.96 66.81 532.96 93.75 547.7 93.75 547.7 26.65 532.96 26.65 532.96 53.21 505.71 53.21 505.71 26.65 490.96 26.65 490.96 93.75"/><polygon class="cls-1" points="444.47 93.75 459.22 93.75 459.22 40.26 479.64 40.26 479.64 26.65 424.05 26.65 424.05 40.26 444.47 40.26 444.47 93.75"/><path class="cls-1" d="M356,93.75H371l6.12-15.05h28.37l6.14,15.05H427.1L398.34,26.18H384.74Zm26.45-28.08,8.92-21.76,8.91,21.76Z"/><polygon class="cls-1" points="278.53 93.75 292.99 93.75 292.99 50.24 311.69 78.6 312.07 78.6 330.96 49.95 330.96 93.75 345.61 93.75 345.61 26.65 329.72 26.65 312.07 55.03 294.43 26.65 278.53 26.65 278.53 93.75"/><path class="cls-1" d="M4.33,93.75H18.82V50.24L37.51,78.6h.38L56.78,49.95v43.8H71.43V26.65H55.53L37.89,55,20.24,26.65H4.33Zm115.8,1.15c20.73,0,35.76-15.61,35.76-34.69V60c0-19.09-14.85-34.5-35.57-34.5S84.57,41.13,84.57,60.21v.19c0,19.08,14.85,34.5,35.56,34.5m.19-13.6C108.43,81.3,100,71.72,100,60.21V60c0-11.51,8.25-20.91,20.13-20.91s20.34,9.59,20.34,21.1v.19c0,11.51-8.26,20.9-20.15,20.9"/><path class="cls-1" d="M17.77,128.7h2.09v19H18.15L5.85,132.13v15.61H3.76v-19h2l12,15.26Z"/><path class="cls-1" d="M43.13,147.74H40.81l-2.23-5H28.22l-2.26,5h-2.2l8.68-19.18h2Zm-9.71-16.67-4.35,9.71h8.68Z"/><path class="cls-1" d="M51.75,147.74H49.57V130.68H43.18v-2h15v2h-6.4Z"/><path class="cls-1" d="M64.42,128.7v19H62.27v-19Z"/><path class="cls-1" d="M79,148.07a9.85,9.85,0,1,1,9.74-9.88A9.57,9.57,0,0,1,79,148.07Zm0-17.71c-4.35,0-7.45,3.48-7.45,7.83a7.58,7.58,0,0,0,7.51,7.89c4.35,0,7.46-3.48,7.46-7.84A7.58,7.58,0,0,0,79,130.36Z"/><path class="cls-1" d="M107.66,128.7h2.1v19H108L95.75,132.13v15.61h-2.1v-19h2l12,15.26Z"/><path class="cls-1" d="M133,147.74h-2.31l-2.23-5H118.11l-2.26,5h-2.2l8.68-19.18h2Zm-9.71-16.67L119,140.78h8.68Z"/><path class="cls-1" d="M136.92,128.7h2.15v17.06h10.72v2H136.92Z"/><path class="cls-1" d="M171.07,142.52H171L164,132.35v15.4h-2.09v-19h2.18L171,139.09,178,128.7h2.17v19H178V132.32Z"/><path class="cls-1" d="M201.66,139.61c0,5.54-3.18,8.43-7.94,8.43s-7.91-2.89-7.91-8.27V128.7h2.15v10.94c0,4.11,2.18,6.42,5.82,6.42s5.74-2.12,5.74-6.28V128.7h2.15Z"/><path class="cls-1" d="M213.75,137.19c4.24.93,6.2,2.48,6.2,5.41,0,3.29-2.72,5.41-6.5,5.41a11.15,11.15,0,0,1-7.78-3l1.33-1.58a9.07,9.07,0,0,0,6.53,2.7c2.56,0,4.24-1.33,4.24-3.26s-1-2.8-5-3.65c-4.38-1-6.39-2.37-6.39-5.52s2.64-5.22,6.26-5.22a10,10,0,0,1,6.69,2.34l-1.25,1.66a8.36,8.36,0,0,0-5.5-2.07c-2.47,0-4.05,1.36-4.05,3.1S209.56,136.29,213.75,137.19Z"/><path class="cls-1" d="M238.4,130.66H226.78v6.5h10.39v2H226.78v6.66h11.75v2h-13.9v-19H238.4Z"/><path class="cls-1" d="M258.36,139.61c0,5.54-3.18,8.43-7.94,8.43s-7.92-2.89-7.92-8.27V128.7h2.15v10.94c0,4.11,2.17,6.42,5.82,6.42s5.74-2.12,5.74-6.28V128.7h2.15Z"/><path class="cls-1" d="M273.13,142.52H273l-6.94-10.17v15.4H264v-19h2.18l6.93,10.39L280,128.7h2.17v19h-2.15V132.32Z"/><path class="cls-1" d="M304.61,148.07a9.85,9.85,0,1,1,9.74-9.88A9.57,9.57,0,0,1,304.61,148.07Zm0-17.71c-4.35,0-7.45,3.48-7.45,7.83a7.58,7.58,0,0,0,7.51,7.89c4.35,0,7.46-3.48,7.46-7.84A7.58,7.58,0,0,0,304.61,130.36Z"/><path class="cls-1" d="M332.93,130.68H321.39v6.8H331.7v2H321.39v8.3h-2.15v-19h13.68Z"/><path class="cls-1" d="M354.39,142.52h-.11l-6.93-10.17v15.4h-2.1v-19h2.18l6.94,10.39,6.94-10.39h2.18v19h-2.15V132.32Z"/><path class="cls-1" d="M386.75,147.74h-2.31l-2.23-5H371.85l-2.26,5h-2.21l8.68-19.18h2ZM377,131.07l-4.35,9.71h8.67Z"/><path class="cls-1" d="M395.37,147.74H393.2V130.68h-6.39v-2h15v2h-6.4Z"/><path class="cls-1" d="M408,139.17v8.57H405.8v-19H408v8.46h11V128.7h2.15v19h-2.15v-8.57Z"/><path class="cls-1" d="M440.7,130.66H429.08v6.5h10.4v2h-10.4v6.66h11.75v2h-13.9v-19H440.7Z"/><path class="cls-1" d="M454.3,142.52h-.11l-6.94-10.17v15.4h-2.1v-19h2.18l6.94,10.39,6.94-10.39h2.17v19h-2.15V132.32Z"/><path class="cls-1" d="M486.66,147.74h-2.31l-2.23-5H471.76l-2.26,5h-2.21L476,128.57h2ZM477,131.07l-4.35,9.71h8.68Z"/><path class="cls-1" d="M495.28,147.74h-2.17V130.68h-6.39v-2h15v2h-6.39Z"/><path class="cls-1" d="M508,128.7v19H505.8v-19Z"/><path class="cls-1" d="M522.48,148.07a9.85,9.85,0,0,1,.08-19.7,9.92,9.92,0,0,1,7.43,3L528.52,133a8.27,8.27,0,0,0-6-2.61c-4.22,0-7.37,3.4-7.37,7.83s3.18,7.89,7.37,7.89a8.27,8.27,0,0,0,6.15-2.75l1.42,1.39A9.92,9.92,0,0,1,522.48,148.07Z"/><path class="cls-1" d="M541.43,137.19c4.24.93,6.2,2.48,6.2,5.41,0,3.29-2.72,5.41-6.5,5.41a11.15,11.15,0,0,1-7.78-3l1.33-1.58a9.06,9.06,0,0,0,6.53,2.7c2.56,0,4.24-1.33,4.24-3.26s-.95-2.8-5-3.65c-4.38-1-6.39-2.37-6.39-5.52s2.64-5.22,6.26-5.22a10,10,0,0,1,6.69,2.34l-1.25,1.66a8.35,8.35,0,0,0-5.5-2.07c-2.48,0-4.05,1.36-4.05,3.1S537.24,136.29,541.43,137.19Z"/><path class="cls-1" d="M244.93,35.44l-5.79-22.56c-.7-2.73-2.81-4.49-5.27-5.73-1.63-.76-4.5-2.11-6.34-2.05l.19.72c2.28.52,5.32,2.87,5.9,5.15l1,3.78-16-.88c-4.38-.27-7.1-5.82-11.34-4.73-1.7.44-2,1.35-1.6,3,1.17,4.56,10,4.8,13.68,5l16.17,1.05,1.79,7-15.95.55a26.52,26.52,0,0,0-5.7.7c-3.1.8-5.56,3-4.71,6.28.46,1.76,1.58,3.06,3.6,2.54,4.51-1.16,3-4.93,6.74-5.89a11.09,11.09,0,0,1,2-.24l14.93-.28L240,35.67l5-.23"/><path class="cls-1" d="M187,88.17l5.79,22.55c.7,2.73,2.81,4.49,5.27,5.74,1.63.76,4.5,2.1,6.34,2.05l-.19-.72c-2.28-.52-5.32-2.87-5.9-5.15l-1-3.78,16,.88c4.38.27,7.1,5.82,11.34,4.73,1.7-.44,2-1.35,1.6-3-1.17-4.56-10-4.81-13.68-5l-16.17-1.05-1.79-7,15.95-.55a26.45,26.45,0,0,0,5.7-.7c3.1-.79,5.56-3,4.71-6.28-.46-1.76-1.58-3.06-3.6-2.54-4.51,1.16-3,4.93-6.74,5.89a11.22,11.22,0,0,1-2,.25l-14.93.28-1.76-6.85-5,.24"/><path class="cls-1" d="M255.1,63.53l11.8-20.08c1.43-2.43,1.17-5.16.3-7.78-.62-1.69-1.71-4.66-3.05-5.92l-.37.64c1.26,2,1.75,5.79.56,7.81l-2,3.37L251.62,29.65c-2.91-3.28-.94-9.13-4.71-11.35-1.52-.89-2.38-.47-3.24,1-2.38,4.06,3.69,10.44,6.15,13.21l10.73,12.14-3.65,6.21L245.2,40a26.54,26.54,0,0,0-4.53-3.52c-2.76-1.62-6-1.82-7.76,1.14-.92,1.57-1,3.28.76,4.34,4,2.36,5.58-1.4,8.94.57a11,11,0,0,1,1.6,1.25L255,54.1l-3.58,6.1,3.69,3.34"/><path class="cls-1" d="M176.8,60.08,165,80.17c-1.43,2.44-1.18,5.16-.31,7.79.63,1.69,1.71,4.66,3.05,5.92l.38-.64c-1.26-2-1.75-5.79-.56-7.81l2-3.37L180.28,94c2.91,3.28.93,9.14,4.71,11.35,1.52.89,2.38.47,3.24-1,2.39-4.06-3.69-10.44-6.15-13.21L171.36,79,175,72.76l11.7,10.85a26.14,26.14,0,0,0,4.53,3.52C194,88.75,197.26,89,199,86c.92-1.57,1-3.28-.76-4.34-4-2.36-5.58,1.4-8.94-.57a10.92,10.92,0,0,1-1.6-1.25L176.91,69.52l3.58-6.1-3.69-3.34"/><path class="cls-1" d="M242.39,90.72l22.55-5.84c2.73-.7,4.48-2.81,5.72-5.28.76-1.64,2.09-4.5,2-6.35l-.72.19c-.51,2.28-2.86,5.33-5.13,5.91l-3.78,1c.43-8,.43-8,.84-16,.27-4.38,5.81-7.11,4.71-11.35-.44-1.7-1.35-2-3-1.6-4.56,1.18-4.78,10-5,13.69-.51,8.08-.51,8.08-1,16.17l-7,1.81c-.3-8-.3-8-.59-15.94a26.6,26.6,0,0,0-.71-5.7c-.81-3.09-3-5.55-6.29-4.69-1.76.46-3.06,1.58-2.54,3.61,1.17,4.5,4.94,3,5.91,6.73a11.11,11.11,0,0,1,.25,2c.16,7.46.16,7.46.32,14.92l-6.84,1.77c.12,2.49.12,2.49.24,5"/><path class="cls-1" d="M189.51,32.89,167,38.74c-2.73.71-4.49,2.81-5.73,5.28-.76,1.63-2.09,4.5-2,6.34l.72-.19c.51-2.28,2.86-5.33,5.13-5.92l3.79-1c-.43,8-.43,8-.85,16-.27,4.38-5.81,7.11-4.71,11.35.44,1.7,1.35,2,3,1.6,4.56-1.18,4.78-10,5-13.69.51-8.09.51-8.09,1-16.17l7-1.81c.3,8,.3,8,.59,15.94a26.26,26.26,0,0,0,.71,5.69c.8,3.1,3,5.55,6.29,4.69,1.76-.46,3.06-1.58,2.54-3.6-1.17-4.51-4.94-3-5.91-6.73a11.09,11.09,0,0,1-.25-2l-.32-14.92,6.85-1.77-.25-5"/><path class="cls-1" d="M214.39,100.95l20.14,11.71c2.44,1.42,5.17,1.15,7.79.27,1.69-.63,4.65-1.72,5.91-3.08l-.65-.37c-2,1.26-5.78,1.77-7.81.59l-3.38-2,11.87-10.79c3.27-2.93,9.13-1,11.33-4.76.89-1.52.46-2.39-1-3.24-4.08-2.37-10.43,3.73-13.19,6.2l-12.1,10.78-6.23-3.62,10.8-11.74a26.39,26.39,0,0,0,3.5-4.54c1.6-2.76,1.79-6-1.17-7.76-1.57-.91-3.29-1-4.34.78-2.34,4,1.43,5.57-.53,8.94A11.46,11.46,0,0,1,234.1,90L223.82,100.8l-6.11-3.55-3.32,3.7"/><path class="cls-1" d="M217.51,22.66,197.37,11c-2.44-1.42-5.17-1.16-7.79-.27-1.69.63-4.65,1.72-5.91,3.07l.64.37c2-1.26,5.78-1.78,7.81-.59l3.38,2L183.63,26.28c-3.27,2.93-9.13,1-11.33,4.76-.88,1.52-.46,2.39,1,3.23,4.08,2.37,10.43-3.73,13.2-6.2l12.1-10.77,6.23,3.61L194,32.66a26.33,26.33,0,0,0-3.5,4.55c-1.61,2.77-1.8,6,1.17,7.76,1.58.91,3.29,1,4.34-.78,2.34-4-1.43-5.57.54-8.94a10.85,10.85,0,0,1,1.25-1.61l10.27-10.83,6.11,3.55,3.32-3.71"/></svg>