<?xml version="1.0" encoding="UTF-8"?>
<svg width="32px" height="60px" viewBox="0 0 32 60" version="1.1" xmlns="http://www.w3.org/2000/svg" xmlns:xlink="http://www.w3.org/1999/xlink">
    <!-- Generator: Sketch 49.3 (51167) - http://www.bohemiancoding.com/sketch -->
    <title>wreath-end</title>
    <desc>Created with Sketch.</desc>
    <defs></defs>
    <g id="comps" stroke="none" stroke-width="1" fill="none" fill-rule="evenodd">
        <g id="Ambassador-Page---Desktop" transform="translate(-651.000000, -204.000000)" fill="#FFD022" fill-rule="nonzero">
            <g id="Group-2" transform="translate(300.000000, 204.000000)">
                <g id="Group-12" transform="translate(98.000000, 0.000000)">
                    <g id="wreath-end" transform="translate(253.000000, 0.000000)">
                        <path d="M9.155,9.512 C9.701,9.512 10.207,9.33 10.617,8.986 C11.637,8.13 11.898,6.353 10.185,4.311 C8.681,2.518 4.638,1.24 4.466,1.186 C4.351,1.15 4.223,1.176 4.131,1.253 C4.038,1.332 3.989,1.451 4.005,1.572 C4.028,1.75 4.583,5.955 6.087,7.749 C7.041,8.885 8.131,9.512 9.155,9.512 Z" id="Shape"></path>
                        <path d="M15.607,10.439 C16.939,10.438 18.283,9.244 18.283,6.579 C18.283,4.238 16.007,0.661 15.908,0.509 C15.844,0.407 15.73,0.345 15.609,0.345 C15.488,0.345 15.374,0.407 15.308,0.509 C15.212,0.661 12.935,4.239 12.935,6.58 C12.935,7.727 13.191,8.698 13.679,9.386 C14.16,10.064 14.844,10.439 15.607,10.439 Z" id="Shape"></path>
                        <path d="M6.936,15.685 L6.94,15.685 C8.086,15.685 9.055,15.427 9.743,14.94 C10.423,14.46 10.796,13.775 10.796,13.011 C10.796,11.679 9.602,10.336 6.937,10.336 C4.597,10.336 1.019,12.613 0.868,12.71 C0.765,12.775 0.701,12.888 0.701,13.01 C0.701,13.132 0.765,13.244 0.868,13.309 C1.018,13.408 4.596,15.685 6.936,15.685 Z" id="Shape"></path>
                        <path d="M17.791,13.973 C18.057,14.762 18.607,15.316 19.338,15.536 C19.549,15.598 19.766,15.63 19.983,15.63 C21.31,15.63 22.44,14.499 23.008,12.605 C23.678,10.362 22.524,6.282 22.473,6.109 C22.44,5.992 22.349,5.901 22.234,5.866 C22.118,5.83 21.991,5.858 21.899,5.936 C21.764,6.054 18.555,8.829 17.883,11.071 C17.555,12.171 17.522,13.174 17.791,13.973 Z" id="Shape"></path>
                        <path d="M12.256,16.841 C11.791,16.702 11.216,16.632 10.544,16.632 C8.376,16.632 5.865,17.345 5.76,17.375 C5.643,17.409 5.553,17.499 5.516,17.616 C5.482,17.732 5.51,17.858 5.588,17.95 C5.705,18.087 8.481,21.294 10.723,21.965 C11.327,22.146 11.903,22.237 12.434,22.237 C13.832,22.237 14.862,21.591 15.187,20.51 C15.566,19.235 14.809,17.606 12.256,16.841 Z" id="Shape"></path>
                        <path d="M14.959,23.911 C14.237,23.609 13.218,23.455 11.928,23.455 C10.162,23.455 8.512,23.74 8.444,23.752 C8.324,23.772 8.223,23.852 8.176,23.965 C8.129,24.076 8.143,24.204 8.21,24.304 C8.314,24.452 10.731,27.936 12.89,28.842 C13.645,29.159 14.36,29.321 15.016,29.321 C16.198,29.321 17.096,28.792 17.483,27.87 C17.996,26.642 17.416,24.942 14.959,23.911 Z" id="Shape"></path>
                        <path d="M23.088,29.238 C23.461,29.489 23.897,29.622 24.346,29.622 C25.45,29.622 26.556,28.88 27.463,27.535 C28.774,25.595 28.887,21.355 28.891,21.176 C28.894,21.055 28.836,20.941 28.734,20.872 C28.633,20.804 28.505,20.793 28.394,20.84 C28.229,20.911 24.34,22.605 23.032,24.544 C22.39,25.495 22.059,26.443 22.079,27.286 C22.096,28.117 22.455,28.811 23.088,29.238 Z" id="Shape"></path>
                        <path d="M31.305,29.796 C31.238,29.694 31.133,29.644 31.002,29.636 C30.822,29.637 26.581,29.704 24.625,30.991 C23.668,31.622 22.999,32.37 22.693,33.156 C22.389,33.931 22.453,34.71 22.873,35.347 C23.313,36.014 24.04,36.381 24.92,36.381 C25.734,36.381 26.65,36.062 27.568,35.458 C29.523,34.169 31.258,30.301 31.332,30.137 C31.381,30.025 31.371,29.897 31.305,29.796 Z" id="Shape"></path>
                        <path d="M16.348,31.16 C14.408,29.851 10.168,29.736 9.99,29.732 C9.872,29.727 9.755,29.789 9.686,29.889 C9.618,29.99 9.606,30.118 9.654,30.229 C9.725,30.394 11.417,34.284 13.358,35.593 C14.282,36.216 15.206,36.546 16.03,36.546 C16.894,36.546 17.612,36.187 18.051,35.534 C18.795,34.431 18.557,32.65 16.348,31.16 Z" id="Shape"></path>
                        <path d="M11.98,11.88 C11.72,11.62 11.72,11.196 11.98,10.935 C12.242,10.675 12.663,10.675 12.924,10.935 C23.511,21.523 25.016,45.325 10.898,59.44 C10.724,59.616 10.498,59.702 10.269,59.702 C10.04,59.702 9.812,59.616 9.639,59.44 C9.29,59.092 9.29,58.53 9.639,58.182 C23.062,44.759 22.047,21.948 11.98,11.88 Z" id="Shape"></path>
                        <path d="M25.87,19.833 C26.773,17.674 26.06,13.495 26.027,13.317 C26.007,13.197 25.927,13.097 25.815,13.049 C25.703,13.002 25.575,13.016 25.476,13.085 C25.328,13.187 21.843,15.606 20.938,17.764 C20.494,18.822 20.355,19.815 20.539,20.639 C20.718,21.451 21.205,22.062 21.908,22.357 C22.187,22.474 22.478,22.532 22.775,22.532 C24.004,22.533 25.16,21.524 25.87,19.833 Z" id="Shape"></path>
                    </g>
                </g>
            </g>
        </g>
    </g>
</svg>