<?xml version="1.0" encoding="UTF-8"?>
<svg width="32px" height="60px" viewBox="0 0 32 60" version="1.1" xmlns="http://www.w3.org/2000/svg" xmlns:xlink="http://www.w3.org/1999/xlink">
    <!-- Generator: Sketch 49.3 (51167) - http://www.bohemiancoding.com/sketch -->
    <title>wreath-start</title>
    <desc>Created with Sketch.</desc>
    <defs></defs>
    <g id="comps" stroke="none" stroke-width="1" fill="none" fill-rule="evenodd">
        <g id="Ambassador-Page---Desktop" transform="translate(-398.000000, -204.000000)" fill="#FFD022" fill-rule="nonzero">
            <g id="Group-2" transform="translate(300.000000, 204.000000)">
                <g id="Group-12" transform="translate(98.000000, 0.000000)">
                    <g id="wreath-start">
                        <path d="M22.845,9.512 C22.298,9.512 21.793,9.33 21.383,8.986 C20.363,8.13 20.102,6.353 21.816,4.311 C23.32,2.518 27.362,1.24 27.533,1.186 C27.65,1.15 27.777,1.176 27.868,1.253 C27.962,1.332 28.009,1.451 27.994,1.572 C27.972,1.75 27.416,5.955 25.912,7.749 C24.958,8.885 23.869,9.512 22.845,9.512 Z" id="Shape"></path>
                        <path d="M16.391,10.439 C15.061,10.438 13.717,9.244 13.717,6.579 C13.717,4.238 15.993,0.661 16.091,0.509 C16.156,0.407 16.269,0.345 16.391,0.345 C16.511,0.345 16.625,0.407 16.69,0.509 C16.787,0.661 19.065,4.239 19.065,6.58 C19.065,7.727 18.807,8.698 18.32,9.386 C17.841,10.064 17.156,10.439 16.391,10.439 Z" id="Shape"></path>
                        <path d="M25.064,15.685 L25.061,15.685 C23.914,15.685 22.946,15.427 22.258,14.94 C21.577,14.46 21.204,13.775 21.204,13.011 C21.204,11.679 22.4,10.336 25.063,10.336 C27.403,10.336 30.982,12.613 31.133,12.71 C31.236,12.775 31.299,12.888 31.299,13.01 C31.299,13.132 31.236,13.244 31.133,13.309 C30.983,13.408 27.404,15.685 25.064,15.685 Z" id="Shape"></path>
                        <path d="M14.208,13.973 C13.944,14.762 13.394,15.316 12.662,15.536 C12.451,15.598 12.234,15.63 12.018,15.63 C10.689,15.63 9.561,14.499 8.992,12.605 C8.323,10.362 9.476,6.282 9.526,6.109 C9.562,5.992 9.651,5.901 9.766,5.866 C9.883,5.83 10.01,5.858 10.101,5.936 C10.237,6.054 13.445,8.829 14.117,11.071 C14.446,12.171 14.477,13.174 14.208,13.973 Z" id="Shape"></path>
                        <path d="M19.744,16.841 C20.208,16.702 20.783,16.632 21.455,16.632 C23.624,16.632 26.134,17.345 26.24,17.375 C26.357,17.409 26.447,17.499 26.483,17.616 C26.518,17.732 26.49,17.858 26.41,17.95 C26.293,18.087 23.518,21.294 21.276,21.965 C20.673,22.146 20.096,22.237 19.565,22.237 C18.166,22.237 17.138,21.591 16.812,20.51 C16.433,19.235 17.191,17.606 19.744,16.841 Z" id="Shape"></path>
                        <path d="M17.041,23.911 C17.763,23.609 18.783,23.455 20.071,23.455 C21.838,23.455 23.487,23.74 23.557,23.752 C23.676,23.772 23.778,23.852 23.825,23.965 C23.872,24.076 23.858,24.204 23.791,24.304 C23.686,24.452 21.27,27.936 19.111,28.842 C18.354,29.159 17.64,29.321 16.984,29.321 C15.803,29.321 14.903,28.792 14.518,27.87 C14.005,26.642 14.584,24.942 17.041,23.911 Z" id="Shape"></path>
                        <path d="M8.912,29.238 C8.54,29.489 8.103,29.622 7.654,29.622 C6.55,29.622 5.444,28.88 4.537,27.535 C3.225,25.595 3.113,21.355 3.108,21.176 C3.106,21.055 3.164,20.941 3.266,20.872 C3.366,20.804 3.495,20.793 3.606,20.84 C3.771,20.911 7.661,22.605 8.969,24.544 C9.61,25.495 9.941,26.443 9.922,27.286 C9.905,28.117 9.544,28.811 8.912,29.238 Z" id="Shape"></path>
                        <path d="M0.696,29.796 C0.763,29.694 0.867,29.644 0.999,29.636 C1.179,29.637 5.418,29.704 7.374,30.991 C8.332,31.622 9.001,32.37 9.308,33.156 C9.61,33.931 9.547,34.71 9.126,35.347 C8.686,36.014 7.96,36.381 7.081,36.381 C6.265,36.381 5.35,36.062 4.432,35.458 C2.477,34.169 0.742,30.301 0.668,30.137 C0.619,30.025 0.63,29.897 0.696,29.796 Z" id="Shape"></path>
                        <path d="M15.653,31.16 C17.592,29.851 21.832,29.736 22.012,29.732 C22.129,29.727 22.245,29.789 22.314,29.889 C22.383,29.99 22.394,30.118 22.346,30.229 C22.275,30.394 20.585,34.284 18.643,35.593 C17.719,36.216 16.795,36.546 15.97,36.546 C15.105,36.546 14.389,36.187 13.948,35.534 C13.205,34.431 13.443,32.65 15.653,31.16 Z" id="Shape"></path>
                        <path d="M20.021,11.88 C20.281,11.62 20.281,11.196 20.021,10.935 C19.759,10.675 19.338,10.675 19.077,10.935 C8.49,21.523 6.983,45.325 21.103,59.44 C21.276,59.616 21.503,59.702 21.732,59.702 C21.958,59.702 22.189,59.616 22.362,59.44 C22.708,59.092 22.708,58.53 22.362,58.182 C8.938,44.759 9.953,21.948 20.021,11.88 Z" id="Shape"></path>
                        <path d="M6.129,19.833 C5.227,17.674 5.939,13.495 5.971,13.317 C5.991,13.197 6.071,13.097 6.184,13.049 C6.297,13.002 6.424,13.016 6.523,13.085 C6.669,13.187 10.156,15.606 11.061,17.764 C11.506,18.822 11.643,19.815 11.462,20.639 C11.283,21.451 10.794,22.062 10.09,22.357 C9.812,22.474 9.52,22.532 9.224,22.532 C7.995,22.533 6.841,21.524 6.129,19.833 Z" id="Shape"></path>
                    </g>
                </g>
            </g>
        </g>
    </g>
</svg>